<svg width="71" height="32" viewBox="0 0 71 32" fill="none" xmlns="http://www.w3.org/2000/svg">
<g clip-path="url(#clip0)">
<path d="M43.9212 5.54142C42.3013 5.56732 40.7251 6.0713 39.3907 6.99006C38.0563 7.90881 37.0231 9.20139 36.4208 10.7054C35.8186 12.2095 35.6742 13.858 36.0058 15.4438C36.3374 17.0296 37.1302 18.4821 38.2846 19.6189C39.439 20.7556 40.9036 21.5259 42.4943 21.833C44.0851 22.1401 45.7311 21.9704 47.2257 21.345C48.7203 20.7197 49.9968 19.6667 50.8949 18.3182C51.7929 16.9698 52.2726 15.3861 52.2735 13.7659C52.2652 12.6774 52.0426 11.6013 51.6184 10.5988C51.1941 9.59639 50.5766 8.68735 49.801 7.92361C49.0254 7.15987 48.1069 6.5564 47.098 6.14766C46.0892 5.73892 45.0097 5.53292 43.9212 5.54142ZM43.9212 18.5371C42.9795 18.522 42.0633 18.2288 41.2877 17.6945C40.5121 17.1602 39.9118 16.4086 39.5621 15.5341C39.2124 14.6596 39.1291 13.7013 39.3224 12.7795C39.5158 11.8578 39.9774 11.0137 40.649 10.3535C41.3207 9.6933 42.1725 9.24635 43.0975 9.06883C44.0224 8.89132 44.9792 8.99116 45.8475 9.35581C46.7159 9.72047 47.4571 10.3337 47.978 11.1183C48.4989 11.903 48.7762 12.8241 48.7751 13.7659C48.7636 15.0421 48.2458 16.2615 47.3357 17.1561C46.4255 18.0508 45.1974 18.5475 43.9212 18.5371Z" fill="#1AE3C1"/>
<path d="M62.6189 5.54141C60.9991 5.56779 59.4232 6.07217 58.0891 6.99122C56.755 7.91026 55.7221 9.20299 55.1203 10.7071C54.5184 12.2112 54.3744 13.8595 54.7063 15.4452C55.0381 17.0309 55.8311 18.4832 56.9856 19.6197C58.1401 20.7562 59.6046 21.5262 61.1953 21.8332C62.786 22.1401 64.4319 21.9702 65.9264 21.3448C67.4208 20.7194 68.6972 19.6664 69.5952 18.318C70.4931 16.9696 70.9727 15.3859 70.9736 13.7659C70.9657 12.6771 70.7432 11.6006 70.3189 10.5979C69.8946 9.59513 69.2769 8.68585 68.5009 7.92202C67.725 7.15818 66.8061 6.55478 65.7969 6.1463C64.7876 5.73782 63.7077 5.53227 62.6189 5.54141ZM62.6189 18.5371C61.6771 18.5227 60.7605 18.2302 59.9844 17.6963C59.2083 17.1624 58.6074 16.411 58.2572 15.5366C57.9069 14.6621 57.823 13.7036 58.016 12.7817C58.209 11.8597 58.6703 11.0153 59.3418 10.3547C60.0133 9.69414 60.8652 9.24683 61.7902 9.06902C62.7152 8.89122 63.6722 8.99086 64.5408 9.35541C65.4094 9.71997 66.1508 10.3332 66.6718 11.1179C67.1929 11.9027 67.4703 12.8239 67.4692 13.7659C67.4573 15.0414 66.9399 16.26 66.0307 17.1545C65.1214 18.0489 63.8944 18.5462 62.6189 18.5371Z" fill="#1AE3C1"/>
<path d="M3.81011 21.1737H-0.000976562V0.00100708H3.81011V21.1737Z" fill="#1AE3C1"/>
<path d="M31.9817 21.1739H28.1707V0.0012207H31.9817V21.1739Z" fill="#1AE3C1"/>
<path d="M15.8881 5.54142C14.2683 5.56804 12.6925 6.07262 11.3586 6.9918C10.0246 7.91099 8.992 9.2038 8.39034 10.7079C7.78867 12.212 7.6448 13.8603 7.9768 15.4459C8.3088 17.0315 9.10186 18.4837 10.2564 19.6201C11.4109 20.7565 12.8755 21.5264 14.4661 21.8332C16.0568 22.14 17.7026 21.9701 19.197 21.3446C20.6914 20.7192 21.9677 19.6662 22.8656 18.3178C23.7635 16.9695 24.2431 15.3859 24.244 13.7659C24.2357 12.6771 24.013 11.6006 23.5885 10.598C23.1641 9.5953 22.5462 8.68609 21.7702 7.92231C20.9942 7.15852 20.0753 6.55513 19.066 6.14661C18.0568 5.73808 16.9769 5.53244 15.8881 5.54142ZM15.8881 18.5371C14.9461 18.5232 14.0293 18.231 13.2529 17.6975C12.4765 17.1639 11.8752 16.4126 11.5246 15.5382C11.174 14.6638 11.0897 13.7053 11.2825 12.7831C11.4752 11.8609 11.9362 11.0163 12.6077 10.3555C13.2791 9.6947 14.131 9.24715 15.0561 9.06916C15.9812 8.89116 16.9383 8.99067 17.807 9.35516C18.6757 9.71965 19.4173 10.3329 19.9384 11.1177C20.4595 11.9025 20.737 12.8238 20.7359 13.7659C20.7243 15.041 20.2074 16.2595 19.2986 17.154C18.3898 18.0484 17.1632 18.5458 15.8881 18.5371Z" fill="#1AE3C1"/>
<path d="M20.8357 5.05591H24.2428V13.7233H20.8357V5.05591Z" fill="#1AE3C1"/>
<path d="M20.6337 24.0408C20.5534 25.2666 20.0099 26.4159 19.1133 27.2556C18.2168 28.0954 17.0344 28.5627 15.806 28.5627C14.5776 28.5627 13.3951 28.0954 12.4986 27.2556C11.602 26.4159 11.0585 25.2666 10.9782 24.0408H7.47864C7.5756 26.184 8.49524 28.2073 10.0462 29.6897C11.5971 31.172 13.6599 31.9993 15.8054 31.9993C17.9508 31.9993 20.0136 31.172 21.5645 29.6897C23.1155 28.2073 24.0351 26.184 24.1321 24.0408H20.6337Z" fill="#1AE3C1"/>
</g>
<defs>
<clipPath id="clip0">
<rect width="70.9736" height="32" fill="white"/>
</clipPath>
</defs>
</svg>
