<svg width="123" height="38" viewBox="0 0 123 38" fill="none" xmlns="http://www.w3.org/2000/svg">
<path fill-rule="evenodd" clip-rule="evenodd" d="M64.8235 9.54755C64.8235 10.9169 63.7092 12.02 62.3258 12.02C60.9425 12.02 59.8282 10.9169 59.8282 9.54755C59.8282 8.17818 60.9041 7.07508 62.3258 7.07508C63.7476 7.11311 64.8235 8.21622 64.8235 9.54755ZM54.5254 14.5305V15.1391C54.5254 15.1391 53.3342 13.6176 50.7981 13.6176C46.6097 13.6176 43.3435 16.7748 43.3435 21.1491C43.3435 25.4855 46.5713 28.6807 50.7981 28.6807C53.3726 28.6807 54.5254 27.1211 54.5254 27.1211V27.7678C54.5254 28.0721 54.756 28.3003 55.0634 28.3003H58.1759V13.998H55.0634C54.756 13.998 54.5254 14.2643 54.5254 14.5305ZM54.5254 23.6977C53.949 24.5345 52.7963 25.2573 51.4129 25.2573C48.9537 25.2573 47.0708 23.7357 47.0708 21.1491C47.0708 18.5626 48.9537 17.041 51.4129 17.041C52.7578 17.041 53.9875 17.8018 54.5254 18.6006V23.6977ZM60.4814 13.998H64.1703V28.3003H60.4814V13.998ZM115.584 13.6176C113.048 13.6176 111.857 15.1391 111.857 15.1391V7.11311H108.168V28.3003H111.28C111.588 28.3003 111.818 28.034 111.818 27.7678V27.1211C111.818 27.1211 113.009 28.6807 115.545 28.6807C119.734 28.6807 123 25.4855 123 21.1491C123 16.8128 119.734 13.6176 115.584 13.6176ZM114.969 25.2192C113.547 25.2192 112.433 24.4965 111.857 23.6597V18.5626C112.433 17.8018 113.663 17.003 114.969 17.003C117.428 17.003 119.311 18.5245 119.311 21.1111C119.311 23.6977 117.428 25.2192 114.969 25.2192ZM106.246 19.8178V28.3383H102.558V20.2362C102.558 17.8779 101.789 16.9269 99.714 16.9269C98.5997 16.9269 97.4469 17.4975 96.7168 18.3343V28.3003H93.028V13.998H95.9483C96.2557 13.998 96.4863 14.2643 96.4863 14.5305V15.1391C97.5622 14.036 98.9839 13.6176 100.406 13.6176C102.02 13.6176 103.364 14.0741 104.44 14.987C105.747 16.0521 106.246 17.4214 106.246 19.8178ZM84.0748 13.6176C81.5387 13.6176 80.3475 15.1391 80.3475 15.1391V7.11311H76.6586V28.3003H79.7711C80.0785 28.3003 80.3091 28.034 80.3091 27.7678V27.1211C80.3091 27.1211 81.5003 28.6807 84.0363 28.6807C88.2247 28.6807 91.4909 25.4855 91.4909 21.1491C91.5294 16.8128 88.2632 13.6176 84.0748 13.6176ZM83.46 25.2192C82.0382 25.2192 80.9239 24.4965 80.3475 23.6597V18.5626C80.9239 17.8018 82.1535 17.003 83.46 17.003C85.9192 17.003 87.8021 18.5245 87.8021 21.1111C87.8021 23.6977 85.9192 25.2192 83.46 25.2192ZM73.4693 13.6176C74.5836 13.6176 75.16 13.8078 75.16 13.8078V17.1932C75.16 17.1932 72.086 16.1662 70.1647 18.3343V28.3383H66.4758V13.998H69.5883C69.8957 13.998 70.1263 14.2643 70.1263 14.5305V15.1391C70.8179 14.3403 72.3165 13.6176 73.4693 13.6176ZM35.1589 27.007C34.9667 26.5506 34.7746 26.0561 34.5825 25.6376C34.2751 24.953 33.9677 24.3063 33.6987 23.6977L33.6603 23.6597C31.0089 17.954 28.1692 12.1722 25.172 6.46647L25.0568 6.23824C24.7493 5.66767 24.4419 5.05906 24.1345 4.45045C23.7503 3.76577 23.366 3.04304 22.7512 2.35836C21.5216 0.836837 19.754 0 17.8711 0C15.9499 0 14.2207 0.836837 12.9527 2.28228C12.3763 2.96697 11.9536 3.68969 11.5693 4.37437C11.2619 4.98298 10.9545 5.59159 10.6471 6.16216L10.5318 6.39039C7.57306 12.0961 4.69114 17.8779 2.03976 23.5836L2.00134 23.6597C1.73236 24.2683 1.42495 24.9149 1.11755 25.5996C0.925419 26.018 0.73329 26.4745 0.541162 26.969C0.0416278 28.3764 -0.112075 29.7077 0.0800535 31.0771C0.502736 33.9299 2.42402 36.3263 5.07539 37.3914C6.07446 37.8098 7.11196 38 8.18787 38C8.49528 38 8.87954 37.962 9.18694 37.9239C10.455 37.7718 11.7615 37.3534 13.0295 36.6306C14.605 35.7558 16.1036 34.5005 17.7943 32.6747C19.485 34.5005 21.0221 35.7558 22.5591 36.6306C23.8271 37.3534 25.1336 37.7718 26.4017 37.9239C26.7091 37.962 27.0933 38 27.4007 38C28.4766 38 29.5526 37.8098 30.5094 37.3914C33.1992 36.3263 35.082 33.8919 35.5047 31.0771C35.8121 29.7457 35.6584 28.4144 35.1589 27.007ZM17.8327 28.985C15.7577 26.3984 14.4128 23.964 13.9517 21.9099C13.7596 21.035 13.7212 20.2743 13.8365 19.5896C13.9133 18.981 14.1439 18.4484 14.4513 17.992C15.1814 16.965 16.411 16.3183 17.8327 16.3183C19.2545 16.3183 20.5225 16.9269 21.2142 17.992C21.5216 18.4484 21.7521 18.981 21.829 19.5896C21.9443 20.2743 21.9058 21.0731 21.7137 21.9099C21.2526 23.9259 19.9077 26.3604 17.8327 28.985ZM33.1607 30.7728C32.8918 32.7508 31.5469 34.4625 29.6678 35.2232C28.7456 35.6036 27.7466 35.7177 26.7475 35.6036C25.7868 35.4895 24.8262 35.1852 23.8271 34.6146C22.4438 33.8539 21.0605 32.6747 19.4466 30.9249C21.9827 27.8438 23.5197 25.029 24.0961 22.5185C24.3651 21.3393 24.4035 20.2743 24.2882 19.2853C24.1345 18.3343 23.7887 17.4595 23.2507 16.6987C22.0595 14.987 20.0614 13.998 17.8327 13.998C15.604 13.998 13.6059 15.025 12.4147 16.6987C11.8767 17.4595 11.5309 18.3343 11.3772 19.2853C11.2235 20.2743 11.2619 21.3774 11.5693 22.5185C12.1457 25.029 13.7212 27.8819 16.2188 30.963C14.6434 32.7127 13.2216 33.8919 11.8383 34.6527C10.8392 35.2232 9.8786 35.5275 8.91796 35.6416C7.88047 35.7558 6.8814 35.6036 5.99761 35.2613C4.11475 34.5005 2.76985 32.7888 2.50087 30.8108C2.3856 29.8599 2.46245 28.9089 2.8467 27.8438C2.96198 27.4635 3.15411 27.0831 3.34624 26.6266C3.61522 26.018 3.92262 25.3714 4.23003 24.7247L4.26845 24.6486C6.91983 18.981 9.76333 13.1992 12.7221 7.56957L12.8374 7.34134C13.1448 6.77077 13.4522 6.16216 13.7596 5.59159C14.067 4.98298 14.4128 4.41241 14.8355 3.91792C15.6425 3.005 16.7184 2.51051 17.9096 2.51051C19.1008 2.51051 20.1767 3.005 20.9836 3.91792C21.4063 4.41241 21.7521 4.98298 22.0595 5.59159C22.367 6.16216 22.6744 6.77077 22.9818 7.34134L23.097 7.56957C26.0174 13.2372 28.8609 19.019 31.5084 24.6867V24.7247C31.8158 25.3333 32.0848 26.018 32.3922 26.6266C32.5843 27.0831 32.7765 27.4635 32.8918 27.8438C33.1992 28.8328 33.3144 29.7838 33.1607 30.7728Z" fill="#2A313C"/>
</svg>
