<svg width="80" height="38" viewBox="0 0 80 38" fill="none" xmlns="http://www.w3.org/2000/svg">
<path fill-rule="evenodd" clip-rule="evenodd" d="M32.9297 0.0194664C29.6119 0.250874 26.8038 3.03701 26.8038 6.96168L26.8038 25.6409C26.8038 26.3166 26.3033 26.8997 25.5712 26.8997L19.7326 26.8997C7.09154 26.9182 8.21292 10.7753 18.9726 10.7568H25.4414V6.06382H18.7502C14.4593 6.06382 11.2805 7.66516 9.13968 10.044C6.98959 12.4321 5.91455 15.6348 5.91455 18.8375C5.90528 22.0402 6.97106 25.2243 9.16748 27.6124C11.3639 29.9913 14.6817 31.5927 19.2321 31.5927H30.2513C30.9742 31.5927 31.5766 30.9632 31.5766 30.2412L31.5766 7.46152C31.5673 6.28597 32.2346 5.37885 33.0965 5.11042C33.9584 4.84199 34.9686 5.18447 35.5617 6.03605L35.5895 6.06382C38.7219 11.1825 51.1591 31.1113 51.1776 31.1484C51.5205 31.6297 51.9283 31.7222 52.2249 31.6204C52.5214 31.5186 52.818 31.2039 52.818 30.4078L52.818 7.46152C52.8087 6.28597 53.476 5.37885 54.3379 5.11042C55.1998 4.84199 56.1914 5.18447 56.7845 6.03605V6.06382H56.8309C59.9633 11.1825 72.4005 31.1113 72.419 31.1484C72.7527 31.6297 73.1512 31.7222 73.4663 31.6204C73.7814 31.5186 74.0872 31.2224 74.0872 30.4356V0.139797H69.3607V17.8193C69.3607 17.8193 66.5433 13.0153 61.7242 4.73092C56.9977 -3.37759 48.073 -0.0175629 48.073 6.96168L48.073 17.8193C48.073 17.8193 45.302 13.0153 40.4735 4.73092C38.3976 1.18576 35.5153 -0.174915 32.9297 0.0194664ZM19.575 0.139797C-6.70795 0.139797 -6.45773 37.5537 19.9272 37.5722L30.2513 37.5722C34.6905 37.5722 37.5171 34.9527 37.5171 30.1024V20.6147C37.5171 20.6147 43.3094 30.1857 45.5892 33.9345C49.4538 40.3121 58.7863 39.0532 58.7585 31.0928V20.6147C58.7585 20.6147 64.5323 30.1857 66.8028 33.9345C70.6674 40.3121 80.0277 39.0532 79.9999 31.0928V0.130539H75.2735V30.4264C75.2827 31.5927 74.6711 32.4535 73.8277 32.7219C72.9843 32.9996 72.0205 32.6479 71.4274 31.8241H71.4089V31.7778C71.4089 31.7778 58.9624 11.9045 55.7929 6.72101C55.7836 6.71176 55.7744 6.73027 55.7651 6.72101C55.7558 6.72101 55.7744 6.69325 55.7651 6.69325C55.4407 6.2582 55.0144 6.16564 54.6715 6.26746C54.3194 6.37853 53.9765 6.68399 53.9857 7.45226L53.9857 30.3986C53.995 31.5556 53.3926 32.4627 52.5585 32.7497C51.7244 33.0274 50.7698 32.6571 50.186 31.8241V31.7963H50.1582C50.1582 31.7963 37.7025 11.886 34.5422 6.71176C34.2086 6.23969 33.7823 6.12861 33.4301 6.23969C33.078 6.35077 32.7351 6.65622 32.7443 7.42449V7.45226L32.7443 30.232C32.7443 31.6112 31.6044 32.7682 30.2235 32.7682H19.2136C14.3759 32.7682 10.7152 31.028 8.29633 28.4085C5.87748 25.789 4.68195 22.3086 4.68195 18.8282C4.69122 15.3571 5.87748 11.849 8.24072 9.22947C10.604 6.60994 14.1442 4.86976 18.7317 4.86976H25.4229V0.130539L19.575 0.139797Z" fill="#2A313C"/>
</svg>
