<svg width="99" height="40" viewBox="0 0 99 40" fill="none" xmlns="http://www.w3.org/2000/svg">
<path fill-rule="evenodd" clip-rule="evenodd" d="M24.8805 19.2491L24.8805 0H29.9069V12.5402C29.9069 12.5402 32.0527 8.79571 38.935 8.79571C46.3005 8.79571 50.6503 14.0419 50.6503 20.5558C50.6503 21.3351 50.5916 22.0883 50.4777 22.8116C51.6766 19.4596 55.7821 17.8059 62.5395 17.8059H68.6678V16.7138C68.6678 13.6519 66 12.0527 62.5395 12.0527C57.2232 12.0527 56.9525 15.4461 56.9525 15.4461H51.7329C51.7329 14.51 52.4095 8.7177 62.9069 8.7177C66.4941 8.7177 70.4305 9.48076 72.4152 12.4757L70.9104 9.63433H76.7873L85.2355 26.6992L93.6643 9.63433H99L83.6696 40H78.0826L82.5097 31.5358L73.0515 13.6772C73.4782 14.7092 73.7175 15.9435 73.7135 17.4159V28.3764C73.7135 29.6441 73.8875 31.6334 73.8875 31.6334H69.2478C69.2478 31.6334 69.1318 30.0341 69.1318 28.4154C69.1318 28.4154 66.7733 32.4915 59.4464 32.4915C54.0914 32.4915 50.109 29.8781 50.109 25.0804C50.109 24.8256 50.1207 24.5774 50.1441 24.3361C48.7488 29.2566 44.5739 32.4525 38.935 32.4525C32.304 32.4525 29.8682 28.6104 29.8682 28.6104C29.8682 30.0536 29.6942 31.6529 29.6942 31.6529H24.7645C24.7645 31.6529 24.8805 29.4295 24.8805 27.8498L24.8805 21.882H5.10369C5.10369 26.0946 8.27417 29.0785 12.6626 29.0785C18.0562 29.0785 19.1582 25.256 19.1582 25.256H24.3199C24.3199 25.256 23.6432 32.3549 12.9719 32.3549C3.9051 32.3549 0 27.8498 0 20.7118C0 11.7016 5.81898 8.7177 12.7979 8.7177C22.2706 8.7177 24.8805 15.1146 24.8805 19.2491ZM19.6608 18.5471C19.6608 14.666 16.7996 12.0917 12.6239 12.0917C8.95079 12.0917 5.21968 14.432 5.23902 18.5471H19.6608ZM37.6784 12.2282C42.4148 12.2282 45.4306 15.7777 45.4306 20.5363C45.4306 25.646 41.9508 28.981 37.717 28.981C32.652 28.981 29.9262 25.0024 29.9262 20.5753C29.9262 16.4798 32.362 12.2282 37.6784 12.2282ZM68.6872 21.0824V22.5451C68.6872 24.4369 67.5272 29.1565 60.703 29.1565C56.9525 29.1565 55.348 27.2647 55.348 25.0804C55.348 21.1214 60.7417 21.0824 68.6872 21.0824Z" fill="#2A313C"/>
</svg>
