<svg width="159" height="22" viewBox="0 0 159 22" fill="none" xmlns="http://www.w3.org/2000/svg">
<path fill-rule="evenodd" clip-rule="evenodd" d="M62.0497 19.2527L48.2477 19.2432V13.1251C48.2477 12.3083 48.9435 11.6137 49.769 11.6137H62.0497C64.1901 11.6137 65.9177 13.323 65.9177 15.4242C65.9177 17.5492 64.1901 19.2579 62.0497 19.2579V19.2527ZM48.2477 2.32853L62.1121 2.34415C64.0557 2.34415 65.6298 3.8995 65.6298 5.81942C65.6298 7.72845 64.0557 9.28143 62.1121 9.28143H49.5578C49.1019 9.31457 48.6508 9.41637 48.2477 9.58777V2.32805V2.32853ZM65.6538 10.4249C67.0599 9.36713 67.9861 7.69957 67.9861 5.80853C67.9861 2.61261 65.3515 0.00852246 62.1073 0.00852246L45.7488 0.00047347V21.5703H62.0497C65.4858 21.5703 68.2693 18.8185 68.2693 15.419C68.2693 13.3594 67.2375 11.5413 65.6538 10.4249ZM138.292 10.8046C137.764 10.8046 137.265 10.9106 136.804 11.0958L136.756 2.32805L150.458 2.32332C152.833 2.32332 154.758 4.21388 154.758 6.56277C154.758 8.90928 152.833 10.8122 150.458 10.8122L138.268 10.8027L138.292 10.8046ZM157.445 19.2522C156.845 19.729 155.991 19.6329 155.468 19.0865L150.683 13.0952C154.259 12.9863 157.114 10.1001 157.114 6.55756C157.114 2.93173 154.139 0 150.467 0H134.28V21.5718H136.78L136.828 14.544C136.876 13.7609 137.529 13.1085 138.34 13.1085H147.549L153.529 20.6021C154.906 22.2072 157.32 22.4747 159 21.1722L157.469 19.2513L157.445 19.2522ZM93.3107 19.1021V13.216C93.3107 12.4078 94.0066 11.7435 94.8176 11.7283H105.687V9.24734H94.7792C94.2739 9.25762 93.7753 9.36371 93.3107 9.55983V2.46867H111.058V0.00047347H90.7912V21.5703H111.792V19.1026H93.3107V19.1021ZM20.8163 0.0525552V12.6184C20.8163 16.9176 18.7144 19.4591 12.4002 19.4591C6.06791 19.4591 3.95393 16.918 3.95393 12.6184V3.78539C3.87379 1.69171 2.13365 0.00994287 0 0.00994287V2.44831C0.773606 2.44831 1.38884 3.0411 1.46179 3.78539V13.4764C1.46179 18.4573 5.421 21.9979 12.3998 21.9979C19.368 21.9979 23.3118 18.4573 23.3118 13.4764V0.0535021H20.8163V0.0525552Z" fill="#2A313C"/>
</svg>
