<svg width="29" height="35" viewBox="0 0 29 35" fill="none" xmlns="http://www.w3.org/2000/svg">
<path fill-rule="evenodd" clip-rule="evenodd" d="M7.76213 6.12828C7.76213 6.18441 7.76348 6.24028 7.76551 6.29616H18.1776V5.70597C18.1626 5.53859 18.1388 5.37346 18.1064 5.21107C17.821 3.77551 16.8777 2.55921 15.5838 1.85302L16.3797 0.293987C16.429 0.197202 16.3952 0.0764703 16.3043 0.024086C16.2134 -0.0282983 16.0997 0.00762194 16.0504 0.104158L15.2441 1.6834C14.5593 1.3706 13.7911 1.19524 12.9794 1.19524C12.1617 1.19524 11.3879 1.37309 10.6991 1.69039L9.88947 0.104158C9.84018 0.00761655 9.72638 -0.0282983 9.63545 0.024086C9.54445 0.0764703 9.51065 0.197202 9.56001 0.293987L10.3602 1.86151C9.12678 2.53975 8.21425 3.68246 7.89061 5.03621C7.80664 5.38743 7.76213 5.75287 7.76213 6.12828ZM10.596 4.33736C10.3257 4.33736 10.1066 4.10438 10.1066 3.81702C10.1066 3.52965 10.3257 3.29667 10.596 3.29667C10.8664 3.29667 11.0857 3.52965 11.0857 3.81702C11.0857 4.10438 10.8664 4.33736 10.596 4.33736ZM7.75232 6.72451H7.80966H18.1871V14.7954C18.1871 15.4686 17.6684 16.0196 17.0341 16.0196H16.0653V18.8326C16.0648 19.5084 15.549 20.0564 14.9123 20.0564C14.2757 20.0564 13.7591 19.5084 13.7591 18.8326V16.0196H12.2055V18.8326C12.2053 19.5084 11.6892 20.0564 11.0526 20.0564C10.4159 20.0564 9.89966 19.5084 9.89966 18.8326V16.0196H8.90546C8.27117 16.0196 7.75232 15.4686 7.75232 14.7954V6.72451ZM14.8531 3.81702C14.8531 4.10438 15.0724 4.33736 15.3427 4.33736C15.6131 4.33736 15.8323 4.10438 15.8323 3.81702C15.8323 3.52965 15.6131 3.29667 15.3427 3.29667C15.0724 3.29667 14.8531 3.52965 14.8531 3.81702ZM20.9004 7.73444C20.9004 7.05869 20.384 6.51066 19.7474 6.51066C19.1107 6.51066 18.5946 7.05869 18.5944 7.73444V12.877C18.5944 13.553 19.1107 14.1011 19.7474 14.1011C20.384 14.1011 20.9001 13.553 20.9004 12.877V7.73444ZM7.3394 12.877V7.73444C7.33913 7.05869 6.82296 6.51066 6.18626 6.51066C5.54967 6.51066 5.03333 7.05869 5.03333 7.73444V12.877C5.0336 13.553 5.54967 14.1011 6.18626 14.1011C6.82296 14.1011 7.3394 13.553 7.3394 12.877Z" fill="#2A313C"/>
<path fill-rule="evenodd" clip-rule="evenodd" d="M1.36149 34.9253V31.0547C2.10115 31.8401 3.1225 32.3168 4.28473 32.3168C6.79417 32.3168 8.78403 30.1385 8.78403 27.4554C8.78403 24.7626 6.79417 22.5842 4.28473 22.5842C3.1225 22.5842 2.10115 23.0611 1.36149 23.8372V22.7713H0.0407104V34.9253H1.36149ZM18.4167 32.1205V22.7713H17.096V23.8372C16.3562 23.0517 15.335 22.5842 14.1726 22.5842C11.6545 22.5842 9.67338 24.7533 9.67338 27.4364C9.67338 30.1292 11.6545 32.3076 14.1726 32.3076C15.335 32.3076 16.3562 31.8307 17.096 31.0547V32.1205H18.4167ZM28.023 22.762H26.535L23.6339 30.1397L20.7413 22.7715H19.2092L22.8631 31.7748L22.5725 32.476C22.2469 33.252 21.6305 33.5885 21.0406 33.5885H20.5562V35.0004H21.023C22.3348 35.0004 23.3739 34.2525 23.9285 32.8314L28.023 22.762ZM11.0026 27.4366C11.0026 29.372 12.4642 30.9427 14.2693 30.9427C15.3963 30.9427 16.4088 30.3444 16.9989 29.4094C17.0339 29.3628 17.0867 29.2598 17.0957 29.0914V25.7725C17.0957 25.6369 17.0507 25.5488 17.0211 25.4911C17.0161 25.4811 17.0115 25.4721 17.0076 25.4639C16.4616 24.5011 15.3963 23.94 14.2693 23.94C12.4642 23.94 11.0026 25.5109 11.0026 27.4366ZM1.44951 29.4281C2.01307 30.3817 3.06085 30.9519 4.18794 30.9519C5.98409 30.9519 7.44575 29.3811 7.44575 27.4554C7.44575 25.52 5.98409 23.9492 4.18794 23.9492C3.06085 23.9492 2.04831 24.5197 1.45832 25.4547C1.42308 25.5013 1.37032 25.604 1.36151 25.7632V29.1195C1.36151 29.2784 1.41437 29.3719 1.44951 29.4281Z" fill="#2A313C"/>
</svg>
