<svg width="52" height="26" viewBox="0 0 52 26" fill="none" xmlns="http://www.w3.org/2000/svg">
<path fill-rule="evenodd" clip-rule="evenodd" d="M10.8036 3.74785C11.4768 2.93487 11.9303 1.80296 11.8061 0.676758C10.8356 0.715859 9.66231 1.32193 8.96654 2.13492C8.34273 2.85422 7.7964 4.00609 7.94425 5.10989C9.02584 5.19339 10.1304 4.56125 10.8036 3.74785ZM13.2296 10.8951C13.256 13.7478 15.6871 14.7353 15.8115 14.7858L15.8162 14.7877L15.8132 14.7975C15.7708 14.9368 15.3832 16.2101 14.4824 17.5236C13.6787 18.6954 12.845 19.8628 11.5313 19.8872C10.9009 19.8987 10.4794 19.7168 10.0413 19.5276C9.58235 19.3295 9.1051 19.1235 8.35019 19.1235C7.56056 19.1235 7.06137 19.3356 6.58041 19.54C6.16323 19.7172 5.75976 19.8887 5.19237 19.9108C3.92457 19.9589 2.95881 18.6441 2.14919 17.4763C0.493984 15.0883 -0.771041 10.7281 0.927651 7.78487C1.77126 6.32345 3.27981 5.39805 4.91643 5.37361C5.62176 5.36046 6.30474 5.63082 6.90275 5.86756C7.35986 6.04851 7.76732 6.20982 8.09718 6.20982C8.39253 6.20982 8.7885 6.05394 9.25032 5.87214C9.9778 5.58577 10.8687 5.23506 11.7871 5.328C12.4157 5.35406 14.1796 5.58134 15.3122 7.23623L15.3067 7.2395C15.16 7.32748 13.2066 8.49879 13.2288 10.8955L13.2296 10.8951ZM22.1965 2.12167C21.6442 2.18382 21.0937 2.26178 20.5456 2.35547V19.6404H21.7584V12.1655C22.3087 12.2864 22.9871 12.3467 23.7951 12.3467C24.6893 12.3467 25.5144 12.2343 26.2706 12.0095C27.0277 11.7846 27.6807 11.4429 28.2314 10.9843C28.7828 10.5246 29.2277 9.94392 29.5336 9.28458C29.8514 8.60926 30.0107 7.82235 30.0107 6.92301C30.0107 6.17927 29.8945 5.52147 29.6629 4.95042C29.4411 4.39483 29.112 3.89152 28.6955 3.47108C28.2144 3.00349 27.5997 2.64466 26.8517 2.39416C26.1038 2.14326 25.2143 2.01781 24.1825 2.01781C23.5192 2.01465 22.8561 2.04932 22.1965 2.12167ZM21.7582 11.0769C22.0508 11.1624 22.3769 11.2235 22.7386 11.2577C23.0992 11.2923 23.4858 11.3094 23.8985 11.3094C25.4458 11.3094 26.6452 10.9461 27.4959 10.2195C28.347 9.49325 28.7728 8.42937 28.7728 7.02782C28.7728 6.35292 28.6605 5.76517 28.4368 5.26256C28.2247 4.77543 27.8968 4.35135 27.4833 4.02964C27.0709 3.70949 26.5808 3.46755 26.0135 3.303C25.4462 3.13804 24.8184 3.05576 24.1306 3.05576C23.5811 3.05576 23.1079 3.07735 22.7121 3.12093C22.3168 3.1637 21.9986 3.21136 21.7582 3.26349V11.0769ZM39.6771 18.1884C39.6601 17.6866 39.6514 17.1847 39.6514 16.6829H39.6521L39.6529 11.7773C39.6529 11.2063 39.5972 10.6312 39.4857 10.0512C39.3807 9.4889 39.1655 8.95462 38.8532 8.481C38.5437 8.01423 38.1187 7.63299 37.5771 7.33973C37.0355 7.04524 36.3342 6.89861 35.474 6.89861C34.8559 6.89625 34.2403 6.97926 33.6437 7.14544C33.0594 7.30999 32.4913 7.58248 31.9418 7.9625L32.3292 8.87161C32.771 8.57128 33.2532 8.33936 33.7603 8.18326C34.2845 8.01911 34.813 7.93684 35.3455 7.93684C36.0508 7.93684 36.6098 8.06677 37.0225 8.32622C37.4352 8.58609 37.7443 8.90582 37.9507 9.28666C38.1543 9.66041 38.2896 10.0695 38.35 10.4935C38.4066 10.8672 38.437 11.2447 38.4409 11.623V11.9602C35.9646 11.9248 34.1121 12.306 32.8827 13.1019C31.6532 13.8982 31.0385 15.0313 31.0385 16.5017C31.0399 16.9271 31.1139 17.349 31.2571 17.7481C31.4003 18.1583 31.6241 18.5336 31.9145 18.8506C32.2063 19.1712 32.5807 19.4306 33.0365 19.6294C33.4923 19.8282 34.0212 19.9276 34.6229 19.9276C35.104 19.9276 35.5467 19.8673 35.9512 19.7463C36.3552 19.6253 36.7165 19.4653 37.0343 19.2657C37.3371 19.0785 37.6183 18.8564 37.8724 18.6038C38.0947 18.3841 38.2935 18.1405 38.4654 17.8772H38.5168L38.6974 19.6424H39.832C39.7462 19.174 39.6944 18.6902 39.6771 18.1884ZM38.4391 12.972C37.7547 12.9556 37.07 12.9814 36.3886 13.0494C35.6754 13.1186 35.0176 13.2706 34.416 13.504C33.8143 13.7377 33.3154 14.0795 32.9201 14.5291C32.5247 14.9796 32.3271 15.5759 32.3271 16.3205C32.3271 17.2027 32.5761 17.852 33.0742 18.2674C33.5723 18.6829 34.1313 18.8906 34.7504 18.8906C35.2493 18.8906 35.696 18.8214 36.0913 18.6829C36.4866 18.5444 36.8306 18.3578 37.1231 18.1249C37.4059 17.9013 37.6536 17.6342 37.8576 17.333C38.0482 17.0532 38.2003 16.7476 38.3095 16.4248C38.3956 16.0785 38.4383 15.8268 38.4387 15.6712V12.9724L38.4391 12.972ZM45.1684 15.2815L42.0225 7.18302L42.0233 7.18262H40.7329L45.1941 18.7339C45.2977 18.9762 45.3491 19.1579 45.3491 19.2788C45.3491 19.3656 45.2969 19.5468 45.1941 19.8238C44.9016 20.5508 44.5707 21.1695 44.2011 21.6803C43.8315 22.1907 43.4919 22.6016 43.1823 22.9132C42.8214 23.2765 42.4518 23.5706 42.0731 23.7955C41.6951 24.0203 41.3512 24.202 41.0413 24.3404L41.4544 25.3526C41.592 25.3009 41.8632 25.1754 42.2664 24.9758C42.6708 24.7767 43.1135 24.461 43.5947 24.0284C44.0181 23.6536 44.3952 23.2266 44.7174 22.7568C45.0526 22.2721 45.3835 21.7141 45.7096 21.0828C46.0644 20.3894 46.3871 19.6791 46.6766 18.9542C47.0277 18.0809 47.3674 17.2028 47.6957 16.3201L51.2801 7.18302H49.9905L47.0501 15.229C46.8612 15.7308 46.6892 16.2204 46.535 16.6961C46.3805 17.1718 46.2429 17.5999 46.1223 17.9811H46.0709C45.9512 17.582 45.8136 17.1454 45.6586 16.6696C45.5044 16.1939 45.3404 15.7312 45.1684 15.2815Z" fill="#2A313C"/>
</svg>
