<svg width="406" height="104" viewBox="0 0 406 104" fill="none" xmlns="http://www.w3.org/2000/svg">
<g filter="url(#filter0_d)">
<circle cx="52" cy="48" r="28" fill="#1AE3C1"/>
</g>
<g clip-path="url(#clip0)">
<path d="M57.6444 44.0304C56.7585 44.0446 55.8966 44.3202 55.1668 44.8226C54.437 45.3251 53.872 46.032 53.5427 46.8545C53.2133 47.677 53.1344 48.5785 53.3157 49.4458C53.497 50.313 53.9306 51.1074 54.5619 51.729C55.1932 52.3507 55.9941 52.7719 56.8641 52.9399C57.734 53.1078 58.6342 53.015 59.4516 52.673C60.2689 52.331 60.967 51.7552 61.4581 51.0177C61.9493 50.2803 62.2116 49.4142 62.2121 48.5282C62.2076 47.9329 62.0858 47.3444 61.8538 46.7962C61.6218 46.248 61.2841 45.7508 60.8599 45.3332C60.4358 44.9155 59.9335 44.5855 59.3818 44.3619C58.83 44.1384 58.2397 44.0258 57.6444 44.0304ZM57.6444 51.1374C57.1294 51.1292 56.6284 50.9688 56.2042 50.6767C55.7801 50.3845 55.4518 49.9734 55.2605 49.4952C55.0693 49.0169 55.0237 48.4928 55.1295 47.9887C55.2352 47.4847 55.4876 47.0231 55.855 46.662C56.2223 46.301 56.6881 46.0565 57.1939 45.9595C57.6998 45.8624 58.223 45.917 58.6979 46.1164C59.1728 46.3158 59.5781 46.6512 59.863 47.0803C60.1478 47.5094 60.2995 48.0131 60.2989 48.5282C60.2926 49.2261 60.0094 49.8929 59.5117 50.3822C59.014 50.8715 58.3423 51.1431 57.6444 51.1374Z" fill="#2A313C"/>
<path d="M67.8697 44.0307C66.9838 44.0451 66.122 44.3209 65.3924 44.8235C64.6628 45.3261 64.098 46.0331 63.7688 46.8556C63.4397 47.6782 63.3609 48.5797 63.5424 49.4468C63.7239 50.314 64.1576 51.1082 64.7889 51.7297C65.4203 52.3512 66.2212 52.7724 67.0911 52.9402C67.961 53.1081 68.8612 53.0151 69.6784 52.6731C70.4957 52.3311 71.1937 51.7553 71.6848 51.0179C72.1759 50.2805 72.4381 49.4144 72.4386 48.5285C72.4343 47.933 72.3126 47.3443 72.0806 46.7959C71.8486 46.2476 71.5107 45.7503 71.0864 45.3326C70.6621 44.9148 70.1596 44.5849 69.6076 44.3615C69.0557 44.1381 68.4651 44.0257 67.8697 44.0307ZM67.8697 51.1377C67.3546 51.1298 66.8533 50.9698 66.4289 50.6779C66.0045 50.3859 65.6759 49.975 65.4843 49.4968C65.2928 49.0186 65.2469 48.4944 65.3525 47.9902C65.458 47.486 65.7102 47.0242 66.0775 46.663C66.4447 46.3017 66.9106 46.0571 67.4165 45.9598C67.9223 45.8626 68.4457 45.9171 68.9207 46.1165C69.3957 46.3158 69.8011 46.6512 70.0861 47.0803C70.371 47.5095 70.5227 48.0133 70.5221 48.5285C70.5156 49.226 70.2327 49.8924 69.7355 50.3816C69.2382 50.8707 68.5672 51.1426 67.8697 51.1377Z" fill="#2A313C"/>
<path d="M35.7082 52.5799H33.624V41.0011H35.7082V52.5799Z" fill="#2A313C"/>
<path d="M51.115 52.5796H49.0309V41.0007H51.115V52.5796Z" fill="#2A313C"/>
<path d="M42.3137 44.0307C41.4279 44.0452 40.5662 44.3212 39.8367 44.8239C39.1072 45.3265 38.5424 46.0335 38.2134 46.8561C37.8844 47.6786 37.8057 48.5801 37.9872 49.4472C38.1688 50.3143 38.6025 51.1085 39.2339 51.7299C39.8653 52.3514 40.6662 52.7725 41.5361 52.9403C42.406 53.108 43.3061 53.0151 44.1233 52.6731C44.9405 52.331 45.6385 51.7552 46.1296 51.0178C46.6206 50.2804 46.8829 49.4144 46.8834 48.5284C46.8788 47.933 46.757 47.3443 46.5249 46.796C46.2928 46.2476 45.9549 45.7504 45.5305 45.3327C45.1061 44.915 44.6036 44.585 44.0517 44.3616C43.4997 44.1382 42.9092 44.0258 42.3137 44.0307ZM42.3137 51.1377C41.7986 51.1301 41.2972 50.9703 40.8726 50.6785C40.448 50.3867 40.1192 49.9759 39.9274 49.4977C39.7357 49.0195 39.6896 48.4953 39.795 47.991C39.9004 47.4867 40.1526 47.0248 40.5198 46.6634C40.8869 46.302 41.3528 46.0572 41.8587 45.9599C42.3646 45.8626 42.888 45.917 43.3631 46.1163C43.8382 46.3156 44.2437 46.651 44.5287 47.0802C44.8137 47.5094 44.9655 48.0132 44.9649 48.5284C44.9586 49.2258 44.6759 49.8921 44.1789 50.3813C43.6818 50.8704 43.0111 51.1425 42.3137 51.1377Z" fill="#2A313C"/>
<path d="M45.0195 43.765H46.8828V48.505H45.0195V43.765Z" fill="#2A313C"/>
<path d="M44.9091 54.1475C44.8652 54.8178 44.5679 55.4464 44.0776 55.9056C43.5873 56.3648 42.9407 56.6204 42.2689 56.6204C41.5971 56.6204 40.9505 56.3648 40.4602 55.9056C39.9699 55.4464 39.6726 54.8178 39.6287 54.1475H37.7149C37.7679 55.3195 38.2709 56.426 39.119 57.2367C39.9672 58.0474 41.0953 58.4998 42.2686 58.4998C43.4419 58.4998 44.5699 58.0474 45.4181 57.2367C46.2663 56.426 46.7692 55.3195 46.8223 54.1475H44.9091Z" fill="#2A313C"/>
</g>
<g filter="url(#filter1_d)">
<path d="M92 25C92 22.2386 94.2386 20 97 20H381C383.761 20 386 22.2386 386 25V75C386 77.7614 383.761 80 381 80H97C94.2386 80 92 77.7614 92 75V25Z" fill="white"/>
</g>
<path d="M108.112 36.004H116.204V37.516H113.026V46H111.276V37.516H108.112V36.004ZM120.55 41.744C120.532 41.492 120.476 41.2493 120.382 41.016C120.298 40.7827 120.177 40.582 120.018 40.414C119.869 40.2367 119.682 40.0967 119.458 39.994C119.244 39.882 119.001 39.826 118.73 39.826C118.45 39.826 118.194 39.8773 117.96 39.98C117.736 40.0733 117.54 40.2087 117.372 40.386C117.214 40.554 117.083 40.7547 116.98 40.988C116.887 41.2213 116.836 41.4733 116.826 41.744H120.55ZM116.826 42.794C116.826 43.074 116.864 43.3447 116.938 43.606C117.022 43.8673 117.144 44.096 117.302 44.292C117.461 44.488 117.662 44.6467 117.904 44.768C118.147 44.88 118.436 44.936 118.772 44.936C119.239 44.936 119.612 44.838 119.892 44.642C120.182 44.4367 120.396 44.1333 120.536 43.732H122.048C121.964 44.124 121.82 44.474 121.614 44.782C121.409 45.09 121.162 45.3513 120.872 45.566C120.583 45.7713 120.256 45.9253 119.892 46.028C119.538 46.14 119.164 46.196 118.772 46.196C118.203 46.196 117.699 46.1027 117.26 45.916C116.822 45.7293 116.448 45.468 116.14 45.132C115.842 44.796 115.613 44.3947 115.454 43.928C115.305 43.4613 115.23 42.948 115.23 42.388C115.23 41.8747 115.31 41.3893 115.468 40.932C115.636 40.4653 115.87 40.0593 116.168 39.714C116.476 39.3593 116.845 39.0793 117.274 38.874C117.704 38.6687 118.189 38.566 118.73 38.566C119.3 38.566 119.808 38.6873 120.256 38.93C120.714 39.1633 121.092 39.476 121.39 39.868C121.689 40.26 121.904 40.7127 122.034 41.226C122.174 41.73 122.212 42.2527 122.146 42.794H116.826ZM123.36 38.762H124.872V39.826L124.9 39.854C125.142 39.4527 125.46 39.14 125.852 38.916C126.244 38.6827 126.678 38.566 127.154 38.566C127.947 38.566 128.572 38.7713 129.03 39.182C129.487 39.5927 129.716 40.2087 129.716 41.03V46H128.12V41.45C128.101 40.8807 127.98 40.47 127.756 40.218C127.532 39.9567 127.182 39.826 126.706 39.826C126.435 39.826 126.192 39.8773 125.978 39.98C125.763 40.0733 125.581 40.2087 125.432 40.386C125.282 40.554 125.166 40.7547 125.082 40.988C124.998 41.2213 124.956 41.4687 124.956 41.73V46H123.36V38.762ZM137.461 44.39C137.461 44.586 137.484 44.726 137.531 44.81C137.587 44.894 137.689 44.936 137.839 44.936C137.885 44.936 137.941 44.936 138.007 44.936C138.072 44.936 138.147 44.9267 138.231 44.908V46.014C138.175 46.0327 138.1 46.0513 138.007 46.07C137.923 46.098 137.834 46.1213 137.741 46.14C137.647 46.1587 137.554 46.1727 137.461 46.182C137.367 46.1913 137.288 46.196 137.223 46.196C136.896 46.196 136.625 46.1307 136.411 46C136.196 45.8693 136.056 45.6407 135.991 45.314C135.673 45.622 135.281 45.846 134.815 45.986C134.357 46.126 133.914 46.196 133.485 46.196C133.158 46.196 132.845 46.1493 132.547 46.056C132.248 45.972 131.982 45.846 131.749 45.678C131.525 45.5007 131.343 45.2813 131.203 45.02C131.072 44.7493 131.007 44.4367 131.007 44.082C131.007 43.634 131.086 43.27 131.245 42.99C131.413 42.71 131.627 42.4907 131.889 42.332C132.159 42.1733 132.458 42.0613 132.785 41.996C133.121 41.9213 133.457 41.8653 133.793 41.828C134.082 41.772 134.357 41.7347 134.619 41.716C134.88 41.688 135.109 41.646 135.305 41.59C135.51 41.534 135.669 41.45 135.781 41.338C135.902 41.2167 135.963 41.0393 135.963 40.806C135.963 40.6007 135.911 40.4327 135.809 40.302C135.715 40.1713 135.594 40.0733 135.445 40.008C135.305 39.9333 135.146 39.8867 134.969 39.868C134.791 39.84 134.623 39.826 134.465 39.826C134.017 39.826 133.648 39.9193 133.359 40.106C133.069 40.2927 132.906 40.582 132.869 40.974H131.273C131.301 40.5073 131.413 40.12 131.609 39.812C131.805 39.504 132.052 39.2567 132.351 39.07C132.659 38.8833 133.004 38.7527 133.387 38.678C133.769 38.6033 134.161 38.566 134.563 38.566C134.917 38.566 135.267 38.6033 135.613 38.678C135.958 38.7527 136.266 38.874 136.537 39.042C136.817 39.21 137.041 39.4293 137.209 39.7C137.377 39.9613 137.461 40.2833 137.461 40.666V44.39ZM135.865 42.374C135.622 42.5327 135.323 42.6307 134.969 42.668C134.614 42.696 134.259 42.7427 133.905 42.808C133.737 42.836 133.573 42.878 133.415 42.934C133.256 42.9807 133.116 43.0507 132.995 43.144C132.873 43.228 132.775 43.3447 132.701 43.494C132.635 43.634 132.603 43.8067 132.603 44.012C132.603 44.1893 132.654 44.3387 132.757 44.46C132.859 44.5813 132.981 44.6793 133.121 44.754C133.27 44.8193 133.429 44.866 133.597 44.894C133.774 44.922 133.933 44.936 134.073 44.936C134.25 44.936 134.441 44.9127 134.647 44.866C134.852 44.8193 135.043 44.74 135.221 44.628C135.407 44.516 135.561 44.376 135.683 44.208C135.804 44.0307 135.865 43.816 135.865 43.564V42.374ZM139.178 38.762H140.69V39.826L140.718 39.854C140.961 39.4527 141.278 39.14 141.67 38.916C142.062 38.6827 142.496 38.566 142.972 38.566C143.765 38.566 144.391 38.7713 144.848 39.182C145.305 39.5927 145.534 40.2087 145.534 41.03V46H143.938V41.45C143.919 40.8807 143.798 40.47 143.574 40.218C143.35 39.9567 143 39.826 142.524 39.826C142.253 39.826 142.011 39.8773 141.796 39.98C141.581 40.0733 141.399 40.2087 141.25 40.386C141.101 40.554 140.984 40.7547 140.9 40.988C140.816 41.2213 140.774 41.4687 140.774 41.73V46H139.178V38.762ZM146.489 38.762H147.693V36.592H149.289V38.762H150.731V39.952H149.289V43.816C149.289 43.984 149.294 44.1287 149.303 44.25C149.322 44.3713 149.354 44.474 149.401 44.558C149.457 44.642 149.536 44.7073 149.639 44.754C149.742 44.7913 149.882 44.81 150.059 44.81C150.171 44.81 150.283 44.81 150.395 44.81C150.507 44.8007 150.619 44.782 150.731 44.754V45.986C150.554 46.0047 150.381 46.0233 150.213 46.042C150.045 46.0607 149.872 46.07 149.695 46.07C149.275 46.07 148.934 46.0327 148.673 45.958C148.421 45.874 148.22 45.7573 148.071 45.608C147.931 45.4493 147.833 45.2533 147.777 45.02C147.73 44.7867 147.702 44.5207 147.693 44.222V39.952H146.489V38.762Z" fill="#7A5AFF"/>
<path d="M155.776 36.004H157.372V39.714H157.4C157.596 39.3873 157.885 39.1167 158.268 38.902C158.66 38.678 159.094 38.566 159.57 38.566C160.363 38.566 160.988 38.7713 161.446 39.182C161.903 39.5927 162.132 40.2087 162.132 41.03V46H160.536V41.45C160.517 40.8807 160.396 40.47 160.172 40.218C159.948 39.9567 159.598 39.826 159.122 39.826C158.851 39.826 158.608 39.8773 158.394 39.98C158.179 40.0733 157.997 40.2087 157.848 40.386C157.698 40.554 157.582 40.7547 157.498 40.988C157.414 41.2213 157.372 41.4687 157.372 41.73V46H155.776V36.004ZM169.877 44.39C169.877 44.586 169.9 44.726 169.947 44.81C170.003 44.894 170.105 44.936 170.255 44.936C170.301 44.936 170.357 44.936 170.423 44.936C170.488 44.936 170.563 44.9267 170.647 44.908V46.014C170.591 46.0327 170.516 46.0513 170.423 46.07C170.339 46.098 170.25 46.1213 170.157 46.14C170.063 46.1587 169.97 46.1727 169.877 46.182C169.783 46.1913 169.704 46.196 169.639 46.196C169.312 46.196 169.041 46.1307 168.827 46C168.612 45.8693 168.472 45.6407 168.407 45.314C168.089 45.622 167.697 45.846 167.231 45.986C166.773 46.126 166.33 46.196 165.901 46.196C165.574 46.196 165.261 46.1493 164.963 46.056C164.664 45.972 164.398 45.846 164.165 45.678C163.941 45.5007 163.759 45.2813 163.619 45.02C163.488 44.7493 163.423 44.4367 163.423 44.082C163.423 43.634 163.502 43.27 163.661 42.99C163.829 42.71 164.043 42.4907 164.305 42.332C164.575 42.1733 164.874 42.0613 165.201 41.996C165.537 41.9213 165.873 41.8653 166.209 41.828C166.498 41.772 166.773 41.7347 167.035 41.716C167.296 41.688 167.525 41.646 167.721 41.59C167.926 41.534 168.085 41.45 168.197 41.338C168.318 41.2167 168.379 41.0393 168.379 40.806C168.379 40.6007 168.327 40.4327 168.225 40.302C168.131 40.1713 168.01 40.0733 167.861 40.008C167.721 39.9333 167.562 39.8867 167.385 39.868C167.207 39.84 167.039 39.826 166.881 39.826C166.433 39.826 166.064 39.9193 165.775 40.106C165.485 40.2927 165.322 40.582 165.285 40.974H163.689C163.717 40.5073 163.829 40.12 164.025 39.812C164.221 39.504 164.468 39.2567 164.767 39.07C165.075 38.8833 165.42 38.7527 165.803 38.678C166.185 38.6033 166.577 38.566 166.979 38.566C167.333 38.566 167.683 38.6033 168.029 38.678C168.374 38.7527 168.682 38.874 168.953 39.042C169.233 39.21 169.457 39.4293 169.625 39.7C169.793 39.9613 169.877 40.2833 169.877 40.666V44.39ZM168.281 42.374C168.038 42.5327 167.739 42.6307 167.385 42.668C167.03 42.696 166.675 42.7427 166.321 42.808C166.153 42.836 165.989 42.878 165.831 42.934C165.672 42.9807 165.532 43.0507 165.411 43.144C165.289 43.228 165.191 43.3447 165.117 43.494C165.051 43.634 165.019 43.8067 165.019 44.012C165.019 44.1893 165.07 44.3387 165.173 44.46C165.275 44.5813 165.397 44.6793 165.537 44.754C165.686 44.8193 165.845 44.866 166.013 44.894C166.19 44.922 166.349 44.936 166.489 44.936C166.666 44.936 166.857 44.9127 167.063 44.866C167.268 44.8193 167.459 44.74 167.637 44.628C167.823 44.516 167.977 44.376 168.099 44.208C168.22 44.0307 168.281 43.816 168.281 43.564V42.374ZM172.798 43.676C172.845 44.1427 173.022 44.4693 173.33 44.656C173.638 44.8427 174.007 44.936 174.436 44.936C174.585 44.936 174.753 44.9267 174.94 44.908C175.136 44.88 175.318 44.8333 175.486 44.768C175.654 44.7027 175.789 44.6093 175.892 44.488C176.004 44.3573 176.055 44.1893 176.046 43.984C176.037 43.7787 175.962 43.6107 175.822 43.48C175.682 43.3493 175.5 43.2467 175.276 43.172C175.061 43.088 174.814 43.018 174.534 42.962C174.254 42.906 173.969 42.8453 173.68 42.78C173.381 42.7147 173.092 42.6353 172.812 42.542C172.541 42.4487 172.294 42.3227 172.07 42.164C171.855 42.0053 171.683 41.8047 171.552 41.562C171.421 41.31 171.356 41.002 171.356 40.638C171.356 40.246 171.449 39.9193 171.636 39.658C171.832 39.3873 172.075 39.1727 172.364 39.014C172.663 38.846 172.989 38.7293 173.344 38.664C173.708 38.5987 174.053 38.566 174.38 38.566C174.753 38.566 175.108 38.608 175.444 38.692C175.789 38.7667 176.097 38.8927 176.368 39.07C176.648 39.2473 176.877 39.4807 177.054 39.77C177.241 40.05 177.357 40.3907 177.404 40.792H175.738C175.663 40.4093 175.486 40.1527 175.206 40.022C174.935 39.8913 174.623 39.826 174.268 39.826C174.156 39.826 174.021 39.8353 173.862 39.854C173.713 39.8727 173.568 39.91 173.428 39.966C173.297 40.0127 173.185 40.0873 173.092 40.19C172.999 40.2833 172.952 40.4093 172.952 40.568C172.952 40.764 173.017 40.9227 173.148 41.044C173.288 41.1653 173.465 41.268 173.68 41.352C173.904 41.4267 174.156 41.492 174.436 41.548C174.716 41.604 175.005 41.6647 175.304 41.73C175.593 41.7953 175.878 41.8747 176.158 41.968C176.438 42.0613 176.685 42.1873 176.9 42.346C177.124 42.5047 177.301 42.7053 177.432 42.948C177.572 43.1907 177.642 43.4893 177.642 43.844C177.642 44.2733 177.544 44.6373 177.348 44.936C177.152 45.2347 176.895 45.4773 176.578 45.664C176.27 45.8507 175.925 45.986 175.542 46.07C175.159 46.154 174.781 46.196 174.408 46.196C173.951 46.196 173.526 46.1447 173.134 46.042C172.751 45.9393 172.415 45.7853 172.126 45.58C171.846 45.3653 171.622 45.104 171.454 44.796C171.295 44.4787 171.211 44.1053 171.202 43.676H172.798ZM183.954 43.676C184.001 44.1427 184.178 44.4693 184.486 44.656C184.794 44.8427 185.163 44.936 185.592 44.936C185.741 44.936 185.909 44.9267 186.096 44.908C186.292 44.88 186.474 44.8333 186.642 44.768C186.81 44.7027 186.945 44.6093 187.048 44.488C187.16 44.3573 187.211 44.1893 187.202 43.984C187.193 43.7787 187.118 43.6107 186.978 43.48C186.838 43.3493 186.656 43.2467 186.432 43.172C186.217 43.088 185.97 43.018 185.69 42.962C185.41 42.906 185.125 42.8453 184.836 42.78C184.537 42.7147 184.248 42.6353 183.968 42.542C183.697 42.4487 183.45 42.3227 183.226 42.164C183.011 42.0053 182.839 41.8047 182.708 41.562C182.577 41.31 182.512 41.002 182.512 40.638C182.512 40.246 182.605 39.9193 182.792 39.658C182.988 39.3873 183.231 39.1727 183.52 39.014C183.819 38.846 184.145 38.7293 184.5 38.664C184.864 38.5987 185.209 38.566 185.536 38.566C185.909 38.566 186.264 38.608 186.6 38.692C186.945 38.7667 187.253 38.8927 187.524 39.07C187.804 39.2473 188.033 39.4807 188.21 39.77C188.397 40.05 188.513 40.3907 188.56 40.792H186.894C186.819 40.4093 186.642 40.1527 186.362 40.022C186.091 39.8913 185.779 39.826 185.424 39.826C185.312 39.826 185.177 39.8353 185.018 39.854C184.869 39.8727 184.724 39.91 184.584 39.966C184.453 40.0127 184.341 40.0873 184.248 40.19C184.155 40.2833 184.108 40.4093 184.108 40.568C184.108 40.764 184.173 40.9227 184.304 41.044C184.444 41.1653 184.621 41.268 184.836 41.352C185.06 41.4267 185.312 41.492 185.592 41.548C185.872 41.604 186.161 41.6647 186.46 41.73C186.749 41.7953 187.034 41.8747 187.314 41.968C187.594 42.0613 187.841 42.1873 188.056 42.346C188.28 42.5047 188.457 42.7053 188.588 42.948C188.728 43.1907 188.798 43.4893 188.798 43.844C188.798 44.2733 188.7 44.6373 188.504 44.936C188.308 45.2347 188.051 45.4773 187.734 45.664C187.426 45.8507 187.081 45.986 186.698 46.07C186.315 46.154 185.937 46.196 185.564 46.196C185.107 46.196 184.682 46.1447 184.29 46.042C183.907 45.9393 183.571 45.7853 183.282 45.58C183.002 45.3653 182.778 45.104 182.61 44.796C182.451 44.4787 182.367 44.1053 182.358 43.676H183.954ZM190.052 36.004H191.648V37.516H190.052V36.004ZM190.052 38.762H191.648V46H190.052V38.762ZM200.079 45.622C200.079 46.714 199.771 47.526 199.155 48.058C198.548 48.5993 197.671 48.87 196.523 48.87C196.159 48.87 195.79 48.8327 195.417 48.758C195.053 48.6833 194.717 48.5573 194.409 48.38C194.11 48.2027 193.858 47.9693 193.653 47.68C193.448 47.3907 193.326 47.036 193.289 46.616H194.885C194.932 46.84 195.011 47.022 195.123 47.162C195.235 47.302 195.366 47.4093 195.515 47.484C195.674 47.568 195.846 47.6193 196.033 47.638C196.22 47.666 196.416 47.68 196.621 47.68C197.265 47.68 197.736 47.5213 198.035 47.204C198.334 46.8867 198.483 46.4293 198.483 45.832V44.726H198.455C198.231 45.1273 197.923 45.44 197.531 45.664C197.148 45.888 196.733 46 196.285 46C195.706 46 195.212 45.902 194.801 45.706C194.4 45.5007 194.064 45.2253 193.793 44.88C193.532 44.5253 193.34 44.1193 193.219 43.662C193.098 43.2047 193.037 42.7147 193.037 42.192C193.037 41.7067 193.112 41.2447 193.261 40.806C193.41 40.3673 193.625 39.9847 193.905 39.658C194.185 39.322 194.526 39.056 194.927 38.86C195.338 38.664 195.8 38.566 196.313 38.566C196.77 38.566 197.19 38.664 197.573 38.86C197.956 39.0467 198.25 39.3453 198.455 39.756H198.483V38.762H200.079V45.622ZM196.537 44.74C196.892 44.74 197.19 44.67 197.433 44.53C197.685 44.3807 197.886 44.1893 198.035 43.956C198.194 43.7133 198.306 43.4427 198.371 43.144C198.446 42.836 198.483 42.528 198.483 42.22C198.483 41.912 198.446 41.6133 198.371 41.324C198.296 41.0347 198.18 40.778 198.021 40.554C197.872 40.33 197.671 40.1527 197.419 40.022C197.176 39.8913 196.882 39.826 196.537 39.826C196.182 39.826 195.884 39.9007 195.641 40.05C195.398 40.1993 195.202 40.3953 195.053 40.638C194.904 40.8713 194.796 41.142 194.731 41.45C194.666 41.7487 194.633 42.0473 194.633 42.346C194.633 42.6447 194.67 42.9387 194.745 43.228C194.82 43.508 194.932 43.76 195.081 43.984C195.24 44.208 195.436 44.39 195.669 44.53C195.912 44.67 196.201 44.74 196.537 44.74ZM201.686 38.762H203.198V39.826L203.226 39.854C203.468 39.4527 203.786 39.14 204.178 38.916C204.57 38.6827 205.004 38.566 205.48 38.566C206.273 38.566 206.898 38.7713 207.356 39.182C207.813 39.5927 208.042 40.2087 208.042 41.03V46H206.446V41.45C206.427 40.8807 206.306 40.47 206.082 40.218C205.858 39.9567 205.508 39.826 205.032 39.826C204.761 39.826 204.518 39.8773 204.304 39.98C204.089 40.0733 203.907 40.2087 203.758 40.386C203.608 40.554 203.492 40.7547 203.408 40.988C203.324 41.2213 203.282 41.4687 203.282 41.73V46H201.686V38.762ZM214.695 41.744C214.676 41.492 214.62 41.2493 214.527 41.016C214.443 40.7827 214.321 40.582 214.163 40.414C214.013 40.2367 213.827 40.0967 213.603 39.994C213.388 39.882 213.145 39.826 212.875 39.826C212.595 39.826 212.338 39.8773 212.105 39.98C211.881 40.0733 211.685 40.2087 211.517 40.386C211.358 40.554 211.227 40.7547 211.125 40.988C211.031 41.2213 210.98 41.4733 210.971 41.744H214.695ZM210.971 42.794C210.971 43.074 211.008 43.3447 211.083 43.606C211.167 43.8673 211.288 44.096 211.447 44.292C211.605 44.488 211.806 44.6467 212.049 44.768C212.291 44.88 212.581 44.936 212.917 44.936C213.383 44.936 213.757 44.838 214.037 44.642C214.326 44.4367 214.541 44.1333 214.681 43.732H216.193C216.109 44.124 215.964 44.474 215.759 44.782C215.553 45.09 215.306 45.3513 215.017 45.566C214.727 45.7713 214.401 45.9253 214.037 46.028C213.682 46.14 213.309 46.196 212.917 46.196C212.347 46.196 211.843 46.1027 211.405 45.916C210.966 45.7293 210.593 45.468 210.285 45.132C209.986 44.796 209.757 44.3947 209.599 43.928C209.449 43.4613 209.375 42.948 209.375 42.388C209.375 41.8747 209.454 41.3893 209.613 40.932C209.781 40.4653 210.014 40.0593 210.313 39.714C210.621 39.3593 210.989 39.0793 211.419 38.874C211.848 38.6687 212.333 38.566 212.875 38.566C213.444 38.566 213.953 38.6873 214.401 38.93C214.858 39.1633 215.236 39.476 215.535 39.868C215.833 40.26 216.048 40.7127 216.179 41.226C216.319 41.73 216.356 42.2527 216.291 42.794H210.971ZM224.322 46H222.81V45.02H222.782C222.567 45.44 222.255 45.7433 221.844 45.93C221.433 46.1073 220.999 46.196 220.542 46.196C219.973 46.196 219.473 46.098 219.044 45.902C218.624 45.6967 218.274 45.4213 217.994 45.076C217.714 44.7307 217.504 44.3247 217.364 43.858C217.224 43.382 217.154 42.8733 217.154 42.332C217.154 41.6787 217.243 41.114 217.42 40.638C217.597 40.162 217.831 39.77 218.12 39.462C218.419 39.154 218.755 38.93 219.128 38.79C219.511 38.6407 219.898 38.566 220.29 38.566C220.514 38.566 220.743 38.5893 220.976 38.636C221.209 38.6733 221.433 38.7387 221.648 38.832C221.863 38.9253 222.059 39.0467 222.236 39.196C222.423 39.336 222.577 39.504 222.698 39.7H222.726V36.004H224.322V46ZM218.75 42.458C218.75 42.766 218.787 43.0693 218.862 43.368C218.946 43.6667 219.067 43.9327 219.226 44.166C219.394 44.3993 219.604 44.586 219.856 44.726C220.108 44.866 220.407 44.936 220.752 44.936C221.107 44.936 221.41 44.8613 221.662 44.712C221.923 44.5627 222.133 44.3667 222.292 44.124C222.46 43.8813 222.581 43.6107 222.656 43.312C222.74 43.004 222.782 42.6913 222.782 42.374C222.782 41.5713 222.6 40.946 222.236 40.498C221.881 40.05 221.396 39.826 220.78 39.826C220.407 39.826 220.089 39.9053 219.828 40.064C219.576 40.2133 219.366 40.414 219.198 40.666C219.039 40.9087 218.923 41.1887 218.848 41.506C218.783 41.814 218.75 42.1313 218.75 42.458ZM236.021 44.39C236.021 44.586 236.044 44.726 236.091 44.81C236.147 44.894 236.25 44.936 236.399 44.936C236.446 44.936 236.502 44.936 236.567 44.936C236.632 44.936 236.707 44.9267 236.791 44.908V46.014C236.735 46.0327 236.66 46.0513 236.567 46.07C236.483 46.098 236.394 46.1213 236.301 46.14C236.208 46.1587 236.114 46.1727 236.021 46.182C235.928 46.1913 235.848 46.196 235.783 46.196C235.456 46.196 235.186 46.1307 234.971 46C234.756 45.8693 234.616 45.6407 234.551 45.314C234.234 45.622 233.842 45.846 233.375 45.986C232.918 46.126 232.474 46.196 232.045 46.196C231.718 46.196 231.406 46.1493 231.107 46.056C230.808 45.972 230.542 45.846 230.309 45.678C230.085 45.5007 229.903 45.2813 229.763 45.02C229.632 44.7493 229.567 44.4367 229.567 44.082C229.567 43.634 229.646 43.27 229.805 42.99C229.973 42.71 230.188 42.4907 230.449 42.332C230.72 42.1733 231.018 42.0613 231.345 41.996C231.681 41.9213 232.017 41.8653 232.353 41.828C232.642 41.772 232.918 41.7347 233.179 41.716C233.44 41.688 233.669 41.646 233.865 41.59C234.07 41.534 234.229 41.45 234.341 41.338C234.462 41.2167 234.523 41.0393 234.523 40.806C234.523 40.6007 234.472 40.4327 234.369 40.302C234.276 40.1713 234.154 40.0733 234.005 40.008C233.865 39.9333 233.706 39.8867 233.529 39.868C233.352 39.84 233.184 39.826 233.025 39.826C232.577 39.826 232.208 39.9193 231.919 40.106C231.63 40.2927 231.466 40.582 231.429 40.974H229.833C229.861 40.5073 229.973 40.12 230.169 39.812C230.365 39.504 230.612 39.2567 230.911 39.07C231.219 38.8833 231.564 38.7527 231.947 38.678C232.33 38.6033 232.722 38.566 233.123 38.566C233.478 38.566 233.828 38.6033 234.173 38.678C234.518 38.7527 234.826 38.874 235.097 39.042C235.377 39.21 235.601 39.4293 235.769 39.7C235.937 39.9613 236.021 40.2833 236.021 40.666V44.39ZM234.425 42.374C234.182 42.5327 233.884 42.6307 233.529 42.668C233.174 42.696 232.82 42.7427 232.465 42.808C232.297 42.836 232.134 42.878 231.975 42.934C231.816 42.9807 231.676 43.0507 231.555 43.144C231.434 43.228 231.336 43.3447 231.261 43.494C231.196 43.634 231.163 43.8067 231.163 44.012C231.163 44.1893 231.214 44.3387 231.317 44.46C231.42 44.5813 231.541 44.6793 231.681 44.754C231.83 44.8193 231.989 44.866 232.157 44.894C232.334 44.922 232.493 44.936 232.633 44.936C232.81 44.936 233.002 44.9127 233.207 44.866C233.412 44.8193 233.604 44.74 233.781 44.628C233.968 44.516 234.122 44.376 234.243 44.208C234.364 44.0307 234.425 43.816 234.425 43.564V42.374ZM240.907 38.762H242.111V36.592H243.707V38.762H245.149V39.952H243.707V43.816C243.707 43.984 243.712 44.1287 243.721 44.25C243.74 44.3713 243.772 44.474 243.819 44.558C243.875 44.642 243.954 44.7073 244.057 44.754C244.16 44.7913 244.3 44.81 244.477 44.81C244.589 44.81 244.701 44.81 244.813 44.81C244.925 44.8007 245.037 44.782 245.149 44.754V45.986C244.972 46.0047 244.799 46.0233 244.631 46.042C244.463 46.0607 244.29 46.07 244.113 46.07C243.693 46.07 243.352 46.0327 243.091 45.958C242.839 45.874 242.638 45.7573 242.489 45.608C242.349 45.4493 242.251 45.2533 242.195 45.02C242.148 44.7867 242.12 44.5207 242.111 44.222V39.952H240.907V38.762ZM251.267 41.744C251.248 41.492 251.192 41.2493 251.099 41.016C251.015 40.7827 250.894 40.582 250.735 40.414C250.586 40.2367 250.399 40.0967 250.175 39.994C249.96 39.882 249.718 39.826 249.447 39.826C249.167 39.826 248.91 39.8773 248.677 39.98C248.453 40.0733 248.257 40.2087 248.089 40.386C247.93 40.554 247.8 40.7547 247.697 40.988C247.604 41.2213 247.552 41.4733 247.543 41.744H251.267ZM247.543 42.794C247.543 43.074 247.58 43.3447 247.655 43.606C247.739 43.8673 247.86 44.096 248.019 44.292C248.178 44.488 248.378 44.6467 248.621 44.768C248.864 44.88 249.153 44.936 249.489 44.936C249.956 44.936 250.329 44.838 250.609 44.642C250.898 44.4367 251.113 44.1333 251.253 43.732H252.765C252.681 44.124 252.536 44.474 252.331 44.782C252.126 45.09 251.878 45.3513 251.589 45.566C251.3 45.7713 250.973 45.9253 250.609 46.028C250.254 46.14 249.881 46.196 249.489 46.196C248.92 46.196 248.416 46.1027 247.977 45.916C247.538 45.7293 247.165 45.468 246.857 45.132C246.558 44.796 246.33 44.3947 246.171 43.928C246.022 43.4613 245.947 42.948 245.947 42.388C245.947 41.8747 246.026 41.3893 246.185 40.932C246.353 40.4653 246.586 40.0593 246.885 39.714C247.193 39.3593 247.562 39.0793 247.991 38.874C248.42 38.6687 248.906 38.566 249.447 38.566C250.016 38.566 250.525 38.6873 250.973 38.93C251.43 39.1633 251.808 39.476 252.107 39.868C252.406 40.26 252.62 40.7127 252.751 41.226C252.891 41.73 252.928 42.2527 252.863 42.794H247.543ZM254.076 38.762H255.588V39.826L255.616 39.854C255.859 39.4527 256.176 39.14 256.568 38.916C256.96 38.6827 257.394 38.566 257.87 38.566C258.664 38.566 259.289 38.7713 259.746 39.182C260.204 39.5927 260.432 40.2087 260.432 41.03V46H258.836V41.45C258.818 40.8807 258.696 40.47 258.472 40.218C258.248 39.9567 257.898 39.826 257.422 39.826C257.152 39.826 256.909 39.8773 256.694 39.98C256.48 40.0733 256.298 40.2087 256.148 40.386C255.999 40.554 255.882 40.7547 255.798 40.988C255.714 41.2213 255.672 41.4687 255.672 41.73V46H254.076V38.762ZM268.177 44.39C268.177 44.586 268.201 44.726 268.247 44.81C268.303 44.894 268.406 44.936 268.555 44.936C268.602 44.936 268.658 44.936 268.723 44.936C268.789 44.936 268.863 44.9267 268.947 44.908V46.014C268.891 46.0327 268.817 46.0513 268.723 46.07C268.639 46.098 268.551 46.1213 268.457 46.14C268.364 46.1587 268.271 46.1727 268.177 46.182C268.084 46.1913 268.005 46.196 267.939 46.196C267.613 46.196 267.342 46.1307 267.127 46C266.913 45.8693 266.773 45.6407 266.707 45.314C266.39 45.622 265.998 45.846 265.531 45.986C265.074 46.126 264.631 46.196 264.201 46.196C263.875 46.196 263.562 46.1493 263.263 46.056C262.965 45.972 262.699 45.846 262.465 45.678C262.241 45.5007 262.059 45.2813 261.919 45.02C261.789 44.7493 261.723 44.4367 261.723 44.082C261.723 43.634 261.803 43.27 261.961 42.99C262.129 42.71 262.344 42.4907 262.605 42.332C262.876 42.1733 263.175 42.0613 263.501 41.996C263.837 41.9213 264.173 41.8653 264.509 41.828C264.799 41.772 265.074 41.7347 265.335 41.716C265.597 41.688 265.825 41.646 266.021 41.59C266.227 41.534 266.385 41.45 266.497 41.338C266.619 41.2167 266.679 41.0393 266.679 40.806C266.679 40.6007 266.628 40.4327 266.525 40.302C266.432 40.1713 266.311 40.0733 266.161 40.008C266.021 39.9333 265.863 39.8867 265.685 39.868C265.508 39.84 265.34 39.826 265.181 39.826C264.733 39.826 264.365 39.9193 264.075 40.106C263.786 40.2927 263.623 40.582 263.585 40.974H261.989C262.017 40.5073 262.129 40.12 262.325 39.812C262.521 39.504 262.769 39.2567 263.067 39.07C263.375 38.8833 263.721 38.7527 264.103 38.678C264.486 38.6033 264.878 38.566 265.279 38.566C265.634 38.566 265.984 38.6033 266.329 38.678C266.675 38.7527 266.983 38.874 267.253 39.042C267.533 39.21 267.757 39.4293 267.925 39.7C268.093 39.9613 268.177 40.2833 268.177 40.666V44.39ZM266.581 42.374C266.339 42.5327 266.04 42.6307 265.685 42.668C265.331 42.696 264.976 42.7427 264.621 42.808C264.453 42.836 264.29 42.878 264.131 42.934C263.973 42.9807 263.833 43.0507 263.711 43.144C263.59 43.228 263.492 43.3447 263.417 43.494C263.352 43.634 263.319 43.8067 263.319 44.012C263.319 44.1893 263.371 44.3387 263.473 44.46C263.576 44.5813 263.697 44.6793 263.837 44.754C263.987 44.8193 264.145 44.866 264.313 44.894C264.491 44.922 264.649 44.936 264.789 44.936C264.967 44.936 265.158 44.9127 265.363 44.866C265.569 44.8193 265.76 44.74 265.937 44.628C266.124 44.516 266.278 44.376 266.399 44.208C266.521 44.0307 266.581 43.816 266.581 43.564V42.374ZM269.895 38.762H271.407V39.826L271.435 39.854C271.677 39.4527 271.995 39.14 272.387 38.916C272.779 38.6827 273.213 38.566 273.689 38.566C274.482 38.566 275.107 38.7713 275.565 39.182C276.022 39.5927 276.251 40.2087 276.251 41.03V46H274.655V41.45C274.636 40.8807 274.515 40.47 274.291 40.218C274.067 39.9567 273.717 39.826 273.241 39.826C272.97 39.826 272.727 39.8773 272.513 39.98C272.298 40.0733 272.116 40.2087 271.967 40.386C271.817 40.554 271.701 40.7547 271.617 40.988C271.533 41.2213 271.491 41.4687 271.491 41.73V46H269.895V38.762ZM282.82 41.184C282.754 40.736 282.572 40.4 282.274 40.176C281.984 39.9427 281.616 39.826 281.168 39.826C280.962 39.826 280.743 39.8633 280.51 39.938C280.276 40.0033 280.062 40.134 279.866 40.33C279.67 40.5167 279.506 40.7827 279.376 41.128C279.245 41.464 279.18 41.9073 279.18 42.458C279.18 42.7567 279.212 43.0553 279.278 43.354C279.352 43.6527 279.464 43.9187 279.614 44.152C279.772 44.3853 279.973 44.5767 280.216 44.726C280.458 44.866 280.752 44.936 281.098 44.936C281.564 44.936 281.947 44.7913 282.246 44.502C282.554 44.2127 282.745 43.8067 282.82 43.284H284.416C284.266 44.2267 283.907 44.95 283.338 45.454C282.778 45.9487 282.031 46.196 281.098 46.196C280.528 46.196 280.024 46.1027 279.586 45.916C279.156 45.72 278.792 45.4587 278.494 45.132C278.195 44.796 277.966 44.3993 277.808 43.942C277.658 43.4847 277.584 42.99 277.584 42.458C277.584 41.9167 277.658 41.408 277.808 40.932C277.957 40.456 278.181 40.0453 278.48 39.7C278.778 39.3453 279.147 39.07 279.586 38.874C280.034 38.6687 280.556 38.566 281.154 38.566C281.574 38.566 281.97 38.622 282.344 38.734C282.726 38.8367 283.062 38.9953 283.352 39.21C283.65 39.4247 283.893 39.6953 284.08 40.022C284.266 40.3487 284.378 40.736 284.416 41.184H282.82ZM284.915 38.762H286.665L288.555 44.166H288.583L290.417 38.762H292.083L289.269 46.392C289.138 46.7187 289.008 47.0313 288.877 47.33C288.756 47.6287 288.602 47.89 288.415 48.114C288.238 48.3473 288.014 48.5293 287.743 48.66C287.472 48.8 287.127 48.87 286.707 48.87C286.334 48.87 285.965 48.842 285.601 48.786V47.442C285.732 47.4607 285.858 47.4793 285.979 47.498C286.1 47.526 286.226 47.54 286.357 47.54C286.544 47.54 286.698 47.5167 286.819 47.47C286.94 47.4233 287.038 47.3533 287.113 47.26C287.197 47.176 287.267 47.0733 287.323 46.952C287.379 46.8307 287.43 46.6907 287.477 46.532L287.659 45.972L284.915 38.762ZM302.931 44.39C302.931 44.586 302.955 44.726 303.001 44.81C303.057 44.894 303.16 44.936 303.309 44.936C303.356 44.936 303.412 44.936 303.477 44.936C303.543 44.936 303.617 44.9267 303.701 44.908V46.014C303.645 46.0327 303.571 46.0513 303.477 46.07C303.393 46.098 303.305 46.1213 303.211 46.14C303.118 46.1587 303.025 46.1727 302.931 46.182C302.838 46.1913 302.759 46.196 302.693 46.196C302.367 46.196 302.096 46.1307 301.881 46C301.667 45.8693 301.527 45.6407 301.461 45.314C301.144 45.622 300.752 45.846 300.285 45.986C299.828 46.126 299.385 46.196 298.955 46.196C298.629 46.196 298.316 46.1493 298.017 46.056C297.719 45.972 297.453 45.846 297.219 45.678C296.995 45.5007 296.813 45.2813 296.673 45.02C296.543 44.7493 296.477 44.4367 296.477 44.082C296.477 43.634 296.557 43.27 296.715 42.99C296.883 42.71 297.098 42.4907 297.359 42.332C297.63 42.1733 297.929 42.0613 298.255 41.996C298.591 41.9213 298.927 41.8653 299.263 41.828C299.553 41.772 299.828 41.7347 300.089 41.716C300.351 41.688 300.579 41.646 300.775 41.59C300.981 41.534 301.139 41.45 301.251 41.338C301.373 41.2167 301.433 41.0393 301.433 40.806C301.433 40.6007 301.382 40.4327 301.279 40.302C301.186 40.1713 301.065 40.0733 300.915 40.008C300.775 39.9333 300.617 39.8867 300.439 39.868C300.262 39.84 300.094 39.826 299.935 39.826C299.487 39.826 299.119 39.9193 298.829 40.106C298.54 40.2927 298.377 40.582 298.339 40.974H296.743C296.771 40.5073 296.883 40.12 297.079 39.812C297.275 39.504 297.523 39.2567 297.821 39.07C298.129 38.8833 298.475 38.7527 298.857 38.678C299.24 38.6033 299.632 38.566 300.033 38.566C300.388 38.566 300.738 38.6033 301.083 38.678C301.429 38.7527 301.737 38.874 302.007 39.042C302.287 39.21 302.511 39.4293 302.679 39.7C302.847 39.9613 302.931 40.2833 302.931 40.666V44.39ZM301.335 42.374C301.093 42.5327 300.794 42.6307 300.439 42.668C300.085 42.696 299.73 42.7427 299.375 42.808C299.207 42.836 299.044 42.878 298.885 42.934C298.727 42.9807 298.587 43.0507 298.465 43.144C298.344 43.228 298.246 43.3447 298.171 43.494C298.106 43.634 298.073 43.8067 298.073 44.012C298.073 44.1893 298.125 44.3387 298.227 44.46C298.33 44.5813 298.451 44.6793 298.591 44.754C298.741 44.8193 298.899 44.866 299.067 44.894C299.245 44.922 299.403 44.936 299.543 44.936C299.721 44.936 299.912 44.9127 300.117 44.866C300.323 44.8193 300.514 44.74 300.691 44.628C300.878 44.516 301.032 44.376 301.153 44.208C301.275 44.0307 301.335 43.816 301.335 43.564V42.374ZM311.341 45.622C311.341 46.714 311.033 47.526 310.417 48.058C309.81 48.5993 308.933 48.87 307.785 48.87C307.421 48.87 307.052 48.8327 306.679 48.758C306.315 48.6833 305.979 48.5573 305.671 48.38C305.372 48.2027 305.12 47.9693 304.915 47.68C304.709 47.3907 304.588 47.036 304.551 46.616H306.147C306.193 46.84 306.273 47.022 306.385 47.162C306.497 47.302 306.627 47.4093 306.777 47.484C306.935 47.568 307.108 47.6193 307.295 47.638C307.481 47.666 307.677 47.68 307.883 47.68C308.527 47.68 308.998 47.5213 309.297 47.204C309.595 46.8867 309.745 46.4293 309.745 45.832V44.726H309.717C309.493 45.1273 309.185 45.44 308.793 45.664C308.41 45.888 307.995 46 307.547 46C306.968 46 306.473 45.902 306.063 45.706C305.661 45.5007 305.325 45.2253 305.055 44.88C304.793 44.5253 304.602 44.1193 304.481 43.662C304.359 43.2047 304.299 42.7147 304.299 42.192C304.299 41.7067 304.373 41.2447 304.523 40.806C304.672 40.3673 304.887 39.9847 305.167 39.658C305.447 39.322 305.787 39.056 306.189 38.86C306.599 38.664 307.061 38.566 307.575 38.566C308.032 38.566 308.452 38.664 308.835 38.86C309.217 39.0467 309.511 39.3453 309.717 39.756H309.745V38.762H311.341V45.622ZM307.799 44.74C308.153 44.74 308.452 44.67 308.695 44.53C308.947 44.3807 309.147 44.1893 309.297 43.956C309.455 43.7133 309.567 43.4427 309.633 43.144C309.707 42.836 309.745 42.528 309.745 42.22C309.745 41.912 309.707 41.6133 309.633 41.324C309.558 41.0347 309.441 40.778 309.283 40.554C309.133 40.33 308.933 40.1527 308.681 40.022C308.438 39.8913 308.144 39.826 307.799 39.826C307.444 39.826 307.145 39.9007 306.903 40.05C306.66 40.1993 306.464 40.3953 306.315 40.638C306.165 40.8713 306.058 41.142 305.993 41.45C305.927 41.7487 305.895 42.0473 305.895 42.346C305.895 42.6447 305.932 42.9387 306.007 43.228C306.081 43.508 306.193 43.76 306.343 43.984C306.501 44.208 306.697 44.39 306.931 44.53C307.173 44.67 307.463 44.74 307.799 44.74ZM312.947 38.762H314.445V40.162H314.473C314.52 39.966 314.609 39.7747 314.739 39.588C314.879 39.4013 315.043 39.2333 315.229 39.084C315.425 38.9253 315.64 38.7993 315.873 38.706C316.107 38.6127 316.345 38.566 316.587 38.566C316.774 38.566 316.9 38.5707 316.965 38.58C317.04 38.5893 317.115 38.5987 317.189 38.608V40.148C317.077 40.1293 316.961 40.1153 316.839 40.106C316.727 40.0873 316.615 40.078 316.503 40.078C316.233 40.078 315.976 40.134 315.733 40.246C315.5 40.3487 315.295 40.5073 315.117 40.722C314.94 40.9273 314.8 41.184 314.697 41.492C314.595 41.8 314.543 42.1547 314.543 42.556V46H312.947V38.762ZM322.593 41.744C322.575 41.492 322.519 41.2493 322.425 41.016C322.341 40.7827 322.22 40.582 322.061 40.414C321.912 40.2367 321.725 40.0967 321.501 39.994C321.287 39.882 321.044 39.826 320.773 39.826C320.493 39.826 320.237 39.8773 320.003 39.98C319.779 40.0733 319.583 40.2087 319.415 40.386C319.257 40.554 319.126 40.7547 319.023 40.988C318.93 41.2213 318.879 41.4733 318.869 41.744H322.593ZM318.869 42.794C318.869 43.074 318.907 43.3447 318.981 43.606C319.065 43.8673 319.187 44.096 319.345 44.292C319.504 44.488 319.705 44.6467 319.947 44.768C320.19 44.88 320.479 44.936 320.815 44.936C321.282 44.936 321.655 44.838 321.935 44.642C322.225 44.4367 322.439 44.1333 322.579 43.732H324.091C324.007 44.124 323.863 44.474 323.657 44.782C323.452 45.09 323.205 45.3513 322.915 45.566C322.626 45.7713 322.299 45.9253 321.935 46.028C321.581 46.14 321.207 46.196 320.815 46.196C320.246 46.196 319.742 46.1027 319.303 45.916C318.865 45.7293 318.491 45.468 318.183 45.132C317.885 44.796 317.656 44.3947 317.497 43.928C317.348 43.4613 317.273 42.948 317.273 42.388C317.273 41.8747 317.353 41.3893 317.511 40.932C317.679 40.4653 317.913 40.0593 318.211 39.714C318.519 39.3593 318.888 39.0793 319.317 38.874C319.747 38.6687 320.232 38.566 320.773 38.566C321.343 38.566 321.851 38.6873 322.299 38.93C322.757 39.1633 323.135 39.476 323.433 39.868C323.732 40.26 323.947 40.7127 324.077 41.226C324.217 41.73 324.255 42.2527 324.189 42.794H318.869ZM330.373 41.744C330.354 41.492 330.298 41.2493 330.205 41.016C330.121 40.7827 329.999 40.582 329.841 40.414C329.691 40.2367 329.505 40.0967 329.281 39.994C329.066 39.882 328.823 39.826 328.553 39.826C328.273 39.826 328.016 39.8773 327.783 39.98C327.559 40.0733 327.363 40.2087 327.195 40.386C327.036 40.554 326.905 40.7547 326.803 40.988C326.709 41.2213 326.658 41.4733 326.649 41.744H330.373ZM326.649 42.794C326.649 43.074 326.686 43.3447 326.761 43.606C326.845 43.8673 326.966 44.096 327.125 44.292C327.283 44.488 327.484 44.6467 327.727 44.768C327.969 44.88 328.259 44.936 328.595 44.936C329.061 44.936 329.435 44.838 329.715 44.642C330.004 44.4367 330.219 44.1333 330.359 43.732H331.871C331.787 44.124 331.642 44.474 331.437 44.782C331.231 45.09 330.984 45.3513 330.695 45.566C330.405 45.7713 330.079 45.9253 329.715 46.028C329.36 46.14 328.987 46.196 328.595 46.196C328.025 46.196 327.521 46.1027 327.083 45.916C326.644 45.7293 326.271 45.468 325.963 45.132C325.664 44.796 325.435 44.3947 325.277 43.928C325.127 43.4613 325.053 42.948 325.053 42.388C325.053 41.8747 325.132 41.3893 325.291 40.932C325.459 40.4653 325.692 40.0593 325.991 39.714C326.299 39.3593 326.667 39.0793 327.097 38.874C327.526 38.6687 328.011 38.566 328.553 38.566C329.122 38.566 329.631 38.6873 330.079 38.93C330.536 39.1633 330.914 39.476 331.213 39.868C331.511 40.26 331.726 40.7127 331.857 41.226C331.997 41.73 332.034 42.2527 331.969 42.794H326.649ZM333.182 38.762H334.694V39.77H334.736C334.857 39.5927 334.988 39.4293 335.128 39.28C335.268 39.1307 335.422 39.0047 335.59 38.902C335.767 38.7993 335.968 38.72 336.192 38.664C336.416 38.5987 336.672 38.566 336.962 38.566C337.4 38.566 337.806 38.664 338.18 38.86C338.562 39.056 338.833 39.3593 338.992 39.77C339.262 39.3967 339.575 39.1027 339.93 38.888C340.284 38.6733 340.728 38.566 341.26 38.566C342.025 38.566 342.618 38.7527 343.038 39.126C343.467 39.4993 343.682 40.1247 343.682 41.002V46H342.086V41.772C342.086 41.4827 342.076 41.2213 342.058 40.988C342.039 40.7453 341.983 40.54 341.89 40.372C341.806 40.1947 341.675 40.0593 341.498 39.966C341.32 39.8727 341.078 39.826 340.77 39.826C340.228 39.826 339.836 39.994 339.594 40.33C339.351 40.666 339.23 41.142 339.23 41.758V46H337.634V41.352C337.634 40.848 337.54 40.47 337.354 40.218C337.176 39.9567 336.845 39.826 336.36 39.826C336.154 39.826 335.954 39.868 335.758 39.952C335.571 40.036 335.403 40.1573 335.254 40.316C335.114 40.4747 334.997 40.6707 334.904 40.904C334.82 41.1373 334.778 41.4033 334.778 41.702V46H333.182V38.762ZM350.333 41.744C350.315 41.492 350.259 41.2493 350.165 41.016C350.081 40.7827 349.96 40.582 349.801 40.414C349.652 40.2367 349.465 40.0967 349.241 39.994C349.027 39.882 348.784 39.826 348.513 39.826C348.233 39.826 347.977 39.8773 347.743 39.98C347.519 40.0733 347.323 40.2087 347.155 40.386C346.997 40.554 346.866 40.7547 346.763 40.988C346.67 41.2213 346.619 41.4733 346.609 41.744H350.333ZM346.609 42.794C346.609 43.074 346.647 43.3447 346.721 43.606C346.805 43.8673 346.927 44.096 347.085 44.292C347.244 44.488 347.445 44.6467 347.687 44.768C347.93 44.88 348.219 44.936 348.555 44.936C349.022 44.936 349.395 44.838 349.675 44.642C349.965 44.4367 350.179 44.1333 350.319 43.732H351.831C351.747 44.124 351.603 44.474 351.397 44.782C351.192 45.09 350.945 45.3513 350.655 45.566C350.366 45.7713 350.039 45.9253 349.675 46.028C349.321 46.14 348.947 46.196 348.555 46.196C347.986 46.196 347.482 46.1027 347.043 45.916C346.605 45.7293 346.231 45.468 345.923 45.132C345.625 44.796 345.396 44.3947 345.237 43.928C345.088 43.4613 345.013 42.948 345.013 42.388C345.013 41.8747 345.093 41.3893 345.251 40.932C345.419 40.4653 345.653 40.0593 345.951 39.714C346.259 39.3593 346.628 39.0793 347.057 38.874C347.487 38.6687 347.972 38.566 348.513 38.566C349.083 38.566 349.591 38.6873 350.039 38.93C350.497 39.1633 350.875 39.476 351.173 39.868C351.472 40.26 351.687 40.7127 351.817 41.226C351.957 41.73 351.995 42.2527 351.929 42.794H346.609ZM353.143 38.762H354.655V39.826L354.683 39.854C354.925 39.4527 355.243 39.14 355.635 38.916C356.027 38.6827 356.461 38.566 356.937 38.566C357.73 38.566 358.355 38.7713 358.813 39.182C359.27 39.5927 359.499 40.2087 359.499 41.03V46H357.903V41.45C357.884 40.8807 357.763 40.47 357.539 40.218C357.315 39.9567 356.965 39.826 356.489 39.826C356.218 39.826 355.975 39.8773 355.761 39.98C355.546 40.0733 355.364 40.2087 355.215 40.386C355.065 40.554 354.949 40.7547 354.865 40.988C354.781 41.2213 354.739 41.4687 354.739 41.73V46H353.143V38.762ZM360.454 38.762H361.658V36.592H363.254V38.762H364.696V39.952H363.254V43.816C363.254 43.984 363.258 44.1287 363.268 44.25C363.286 44.3713 363.319 44.474 363.366 44.558C363.422 44.642 363.501 44.7073 363.604 44.754C363.706 44.7913 363.846 44.81 364.024 44.81C364.136 44.81 364.248 44.81 364.36 44.81C364.472 44.8007 364.584 44.782 364.696 44.754V45.986C364.518 46.0047 364.346 46.0233 364.178 46.042C364.01 46.0607 363.837 46.07 363.66 46.07C363.24 46.07 362.899 46.0327 362.638 45.958C362.386 45.874 362.185 45.7573 362.036 45.608C361.896 45.4493 361.798 45.2533 361.742 45.02C361.695 44.7867 361.667 44.5207 361.658 44.222V39.952H360.454V38.762Z" fill="#2A313C"/>
<path d="M109.596 60.716C109.596 60.284 109.652 59.86 109.764 59.444C109.876 59.02 110.052 58.64 110.292 58.304C110.532 57.968 110.84 57.7 111.216 57.5C111.592 57.292 112.04 57.188 112.56 57.188C113.08 57.188 113.528 57.292 113.904 57.5C114.28 57.7 114.588 57.968 114.828 58.304C115.068 58.64 115.244 59.02 115.356 59.444C115.468 59.86 115.524 60.284 115.524 60.716C115.524 61.148 115.468 61.576 115.356 62C115.244 62.416 115.068 62.792 114.828 63.128C114.588 63.464 114.28 63.736 113.904 63.944C113.528 64.144 113.08 64.244 112.56 64.244C112.04 64.244 111.592 64.144 111.216 63.944C110.84 63.736 110.532 63.464 110.292 63.128C110.052 62.792 109.876 62.416 109.764 62C109.652 61.576 109.596 61.148 109.596 60.716ZM108.456 60.716C108.456 61.3 108.54 61.864 108.708 62.408C108.884 62.944 109.144 63.42 109.488 63.836C109.832 64.252 110.26 64.584 110.772 64.832C111.284 65.072 111.88 65.192 112.56 65.192C113.24 65.192 113.836 65.072 114.348 64.832C114.86 64.584 115.288 64.252 115.632 63.836C115.976 63.42 116.232 62.944 116.4 62.408C116.576 61.864 116.664 61.3 116.664 60.716C116.664 60.132 116.576 59.572 116.4 59.036C116.232 58.492 115.976 58.012 115.632 57.596C115.288 57.18 114.86 56.848 114.348 56.6C113.836 56.352 113.24 56.228 112.56 56.228C111.88 56.228 111.284 56.352 110.772 56.6C110.26 56.848 109.832 57.18 109.488 57.596C109.144 58.012 108.884 58.492 108.708 59.036C108.54 59.572 108.456 60.132 108.456 60.716ZM117.885 58.796V65H118.905V61.496C118.905 61.216 118.941 60.96 119.013 60.728C119.093 60.488 119.209 60.28 119.361 60.104C119.513 59.928 119.701 59.792 119.925 59.696C120.157 59.6 120.429 59.552 120.741 59.552C121.133 59.552 121.441 59.664 121.665 59.888C121.889 60.112 122.001 60.416 122.001 60.8V65H123.021V60.92C123.021 60.584 122.985 60.28 122.913 60.008C122.849 59.728 122.733 59.488 122.565 59.288C122.397 59.088 122.177 58.932 121.905 58.82C121.633 58.708 121.293 58.652 120.885 58.652C119.965 58.652 119.293 59.028 118.869 59.78H118.845V58.796H117.885ZM128.733 62.948H127.713C127.777 63.684 128.045 64.232 128.517 64.592C128.989 64.952 129.581 65.132 130.293 65.132C131.325 65.132 132.073 64.74 132.537 63.956C133.009 63.164 133.245 62.032 133.245 60.56C133.245 59.752 133.165 59.088 133.005 58.568C132.853 58.04 132.645 57.624 132.381 57.32C132.117 57.016 131.809 56.804 131.457 56.684C131.105 56.556 130.729 56.492 130.329 56.492C129.921 56.492 129.545 56.56 129.201 56.696C128.857 56.832 128.561 57.024 128.313 57.272C128.065 57.512 127.873 57.804 127.737 58.148C127.601 58.484 127.533 58.856 127.533 59.264C127.533 59.68 127.589 60.064 127.701 60.416C127.821 60.768 127.993 61.068 128.217 61.316C128.449 61.564 128.733 61.76 129.069 61.904C129.405 62.04 129.789 62.108 130.221 62.108C130.637 62.108 131.021 62.004 131.373 61.796C131.725 61.58 131.997 61.292 132.189 60.932L132.213 60.956C132.181 62.068 132.009 62.896 131.697 63.44C131.385 63.976 130.917 64.244 130.293 64.244C129.885 64.244 129.533 64.132 129.237 63.908C128.941 63.684 128.773 63.364 128.733 62.948ZM132.033 59.336C132.033 59.584 131.993 59.824 131.913 60.056C131.833 60.28 131.717 60.48 131.565 60.656C131.413 60.824 131.229 60.96 131.013 61.064C130.797 61.16 130.557 61.208 130.293 61.208C130.045 61.208 129.817 61.16 129.609 61.064C129.409 60.96 129.233 60.824 129.081 60.656C128.937 60.488 128.821 60.296 128.733 60.08C128.653 59.864 128.613 59.64 128.613 59.408C128.613 59.144 128.641 58.892 128.697 58.652C128.761 58.412 128.857 58.2 128.985 58.016C129.121 57.824 129.293 57.672 129.501 57.56C129.717 57.448 129.977 57.392 130.281 57.392C130.569 57.392 130.821 57.444 131.037 57.548C131.253 57.652 131.433 57.796 131.577 57.98C131.729 58.156 131.841 58.36 131.913 58.592C131.993 58.824 132.033 59.072 132.033 59.336ZM135.977 58.796V56.936H134.957V58.796H133.901V59.696H134.957V63.644C134.957 63.932 134.985 64.164 135.041 64.34C135.097 64.516 135.181 64.652 135.293 64.748C135.413 64.844 135.565 64.912 135.749 64.952C135.941 64.984 136.169 65 136.433 65H137.213V64.1H136.745C136.585 64.1 136.453 64.096 136.349 64.088C136.253 64.072 136.177 64.044 136.121 64.004C136.065 63.964 136.025 63.908 136.001 63.836C135.985 63.764 135.977 63.668 135.977 63.548V59.696H137.213V58.796H135.977ZM138.346 56.432V65H139.366V61.496C139.366 61.216 139.402 60.96 139.474 60.728C139.554 60.488 139.67 60.28 139.822 60.104C139.974 59.928 140.162 59.792 140.386 59.696C140.618 59.6 140.89 59.552 141.202 59.552C141.594 59.552 141.902 59.664 142.126 59.888C142.35 60.112 142.462 60.416 142.462 60.8V65H143.482V60.92C143.482 60.584 143.446 60.28 143.374 60.008C143.31 59.728 143.194 59.488 143.026 59.288C142.858 59.088 142.638 58.932 142.366 58.82C142.094 58.708 141.754 58.652 141.346 58.652C141.162 58.652 140.97 58.672 140.77 58.712C140.578 58.752 140.39 58.816 140.206 58.904C140.03 58.984 139.87 59.092 139.726 59.228C139.582 59.356 139.47 59.516 139.39 59.708H139.366V56.432H138.346ZM148.51 56.432V65H149.59V58.124H149.614L154.09 65H155.338V56.432H154.258V63.38H154.234L149.722 56.432H148.51ZM157.758 61.904C157.758 61.528 157.806 61.196 157.902 60.908C158.006 60.612 158.146 60.364 158.322 60.164C158.498 59.964 158.702 59.812 158.934 59.708C159.174 59.604 159.426 59.552 159.69 59.552C159.954 59.552 160.202 59.604 160.434 59.708C160.674 59.812 160.882 59.964 161.058 60.164C161.234 60.364 161.37 60.612 161.466 60.908C161.57 61.196 161.622 61.528 161.622 61.904C161.622 62.28 161.57 62.616 161.466 62.912C161.37 63.2 161.234 63.444 161.058 63.644C160.882 63.836 160.674 63.984 160.434 64.088C160.202 64.192 159.954 64.244 159.69 64.244C159.426 64.244 159.174 64.192 158.934 64.088C158.702 63.984 158.498 63.836 158.322 63.644C158.146 63.444 158.006 63.2 157.902 62.912C157.806 62.616 157.758 62.28 157.758 61.904ZM156.678 61.904C156.678 62.36 156.742 62.784 156.87 63.176C156.998 63.568 157.19 63.912 157.446 64.208C157.702 64.496 158.018 64.724 158.394 64.892C158.77 65.052 159.202 65.132 159.69 65.132C160.186 65.132 160.618 65.052 160.986 64.892C161.362 64.724 161.678 64.496 161.934 64.208C162.19 63.912 162.382 63.568 162.51 63.176C162.638 62.784 162.702 62.36 162.702 61.904C162.702 61.448 162.638 61.024 162.51 60.632C162.382 60.232 162.19 59.888 161.934 59.6C161.678 59.304 161.362 59.072 160.986 58.904C160.618 58.736 160.186 58.652 159.69 58.652C159.202 58.652 158.77 58.736 158.394 58.904C158.018 59.072 157.702 59.304 157.446 59.6C157.19 59.888 156.998 60.232 156.87 60.632C156.742 61.024 156.678 61.448 156.678 61.904ZM166.701 65L168.969 58.796H167.901L166.209 63.968H166.185L164.445 58.796H163.305L165.609 65H166.701ZM174.213 61.304H170.649C170.665 61.064 170.717 60.84 170.805 60.632C170.893 60.416 171.013 60.228 171.165 60.068C171.317 59.908 171.497 59.784 171.705 59.696C171.921 59.6 172.161 59.552 172.425 59.552C172.681 59.552 172.913 59.6 173.121 59.696C173.337 59.784 173.521 59.908 173.673 60.068C173.833 60.22 173.957 60.404 174.045 60.62C174.141 60.836 174.197 61.064 174.213 61.304ZM175.197 63.032H174.189C174.101 63.44 173.917 63.744 173.637 63.944C173.365 64.144 173.013 64.244 172.581 64.244C172.245 64.244 171.953 64.188 171.705 64.076C171.457 63.964 171.253 63.816 171.093 63.632C170.933 63.44 170.817 63.224 170.745 62.984C170.673 62.736 170.641 62.476 170.649 62.204H175.293C175.309 61.828 175.273 61.432 175.185 61.016C175.105 60.6 174.953 60.216 174.729 59.864C174.513 59.512 174.221 59.224 173.853 59C173.493 58.768 173.037 58.652 172.485 58.652C172.061 58.652 171.669 58.732 171.309 58.892C170.957 59.052 170.649 59.276 170.385 59.564C170.129 59.852 169.929 60.192 169.785 60.584C169.641 60.976 169.569 61.408 169.569 61.88C169.585 62.352 169.653 62.788 169.773 63.188C169.901 63.588 170.089 63.932 170.337 64.22C170.585 64.508 170.889 64.732 171.249 64.892C171.617 65.052 172.049 65.132 172.545 65.132C173.249 65.132 173.833 64.956 174.297 64.604C174.761 64.252 175.061 63.728 175.197 63.032ZM176.35 58.796V65H177.37V61.136C177.37 61.016 177.398 60.868 177.454 60.692C177.518 60.508 177.614 60.332 177.742 60.164C177.878 59.996 178.05 59.852 178.258 59.732C178.474 59.612 178.73 59.552 179.026 59.552C179.258 59.552 179.446 59.588 179.59 59.66C179.742 59.724 179.862 59.82 179.95 59.948C180.038 60.068 180.098 60.212 180.13 60.38C180.17 60.548 180.19 60.732 180.19 60.932V65H181.21V61.136C181.21 60.656 181.354 60.272 181.642 59.984C181.93 59.696 182.326 59.552 182.83 59.552C183.078 59.552 183.278 59.588 183.43 59.66C183.59 59.732 183.714 59.832 183.802 59.96C183.89 60.08 183.95 60.224 183.982 60.392C184.014 60.56 184.03 60.74 184.03 60.932V65H185.05V60.452C185.05 60.132 184.998 59.86 184.894 59.636C184.798 59.404 184.658 59.216 184.474 59.072C184.298 58.928 184.082 58.824 183.826 58.76C183.578 58.688 183.298 58.652 182.986 58.652C182.578 58.652 182.202 58.744 181.858 58.928C181.522 59.112 181.25 59.372 181.042 59.708C180.914 59.324 180.694 59.052 180.382 58.892C180.07 58.732 179.722 58.652 179.338 58.652C178.466 58.652 177.798 59.004 177.334 59.708H177.31V58.796H176.35ZM186.617 56.432V65H187.637V64.172H187.661C187.773 64.356 187.909 64.512 188.069 64.64C188.237 64.76 188.413 64.856 188.597 64.928C188.781 65 188.965 65.052 189.149 65.084C189.341 65.116 189.513 65.132 189.665 65.132C190.137 65.132 190.549 65.048 190.901 64.88C191.261 64.712 191.557 64.484 191.789 64.196C192.029 63.9 192.205 63.556 192.317 63.164C192.437 62.772 192.497 62.356 192.497 61.916C192.497 61.476 192.437 61.06 192.317 60.668C192.197 60.276 192.017 59.932 191.777 59.636C191.545 59.332 191.249 59.092 190.889 58.916C190.537 58.74 190.121 58.652 189.641 58.652C189.209 58.652 188.813 58.732 188.453 58.892C188.093 59.044 187.829 59.292 187.661 59.636H187.637V56.432H186.617ZM191.417 61.844C191.417 62.148 191.385 62.444 191.321 62.732C191.257 63.02 191.153 63.276 191.009 63.5C190.865 63.724 190.673 63.904 190.433 64.04C190.201 64.176 189.909 64.244 189.557 64.244C189.205 64.244 188.905 64.18 188.657 64.052C188.409 63.916 188.205 63.74 188.045 63.524C187.893 63.308 187.781 63.06 187.709 62.78C187.637 62.492 187.601 62.196 187.601 61.892C187.601 61.604 187.633 61.32 187.697 61.04C187.769 60.76 187.881 60.512 188.033 60.296C188.185 60.072 188.381 59.892 188.621 59.756C188.861 59.62 189.153 59.552 189.497 59.552C189.825 59.552 190.109 59.616 190.349 59.744C190.597 59.872 190.797 60.044 190.949 60.26C191.109 60.476 191.225 60.724 191.297 61.004C191.377 61.276 191.417 61.556 191.417 61.844ZM198.002 61.304H194.438C194.454 61.064 194.506 60.84 194.594 60.632C194.682 60.416 194.802 60.228 194.954 60.068C195.106 59.908 195.286 59.784 195.494 59.696C195.71 59.6 195.95 59.552 196.214 59.552C196.47 59.552 196.702 59.6 196.91 59.696C197.126 59.784 197.31 59.908 197.462 60.068C197.622 60.22 197.746 60.404 197.834 60.62C197.93 60.836 197.986 61.064 198.002 61.304ZM198.986 63.032H197.978C197.89 63.44 197.706 63.744 197.426 63.944C197.154 64.144 196.802 64.244 196.37 64.244C196.034 64.244 195.742 64.188 195.494 64.076C195.246 63.964 195.042 63.816 194.882 63.632C194.722 63.44 194.606 63.224 194.534 62.984C194.462 62.736 194.43 62.476 194.438 62.204H199.082C199.098 61.828 199.062 61.432 198.974 61.016C198.894 60.6 198.742 60.216 198.518 59.864C198.302 59.512 198.01 59.224 197.642 59C197.282 58.768 196.826 58.652 196.274 58.652C195.85 58.652 195.458 58.732 195.098 58.892C194.746 59.052 194.438 59.276 194.174 59.564C193.918 59.852 193.718 60.192 193.574 60.584C193.43 60.976 193.358 61.408 193.358 61.88C193.374 62.352 193.442 62.788 193.562 63.188C193.69 63.588 193.878 63.932 194.126 64.22C194.374 64.508 194.678 64.732 195.038 64.892C195.406 65.052 195.838 65.132 196.334 65.132C197.038 65.132 197.622 64.956 198.086 64.604C198.55 64.252 198.85 63.728 198.986 63.032ZM200.103 58.796V65H201.123V62.24C201.123 61.84 201.163 61.488 201.243 61.184C201.323 60.872 201.451 60.608 201.627 60.392C201.803 60.176 202.035 60.012 202.323 59.9C202.611 59.788 202.959 59.732 203.367 59.732V58.652C202.815 58.636 202.359 58.748 201.999 58.988C201.639 59.228 201.335 59.6 201.087 60.104H201.063V58.796H200.103ZM207.235 59.504H208.255C208.247 59.248 208.271 58.996 208.327 58.748C208.391 58.492 208.491 58.264 208.627 58.064C208.763 57.864 208.935 57.704 209.143 57.584C209.359 57.456 209.615 57.392 209.911 57.392C210.135 57.392 210.347 57.428 210.547 57.5C210.747 57.572 210.919 57.676 211.063 57.812C211.215 57.948 211.335 58.112 211.423 58.304C211.511 58.488 211.555 58.696 211.555 58.928C211.555 59.224 211.507 59.484 211.411 59.708C211.323 59.932 211.187 60.14 211.003 60.332C210.827 60.524 210.603 60.716 210.331 60.908C210.059 61.092 209.743 61.296 209.383 61.52C209.087 61.696 208.803 61.884 208.531 62.084C208.259 62.284 208.015 62.516 207.799 62.78C207.583 63.044 207.403 63.356 207.259 63.716C207.123 64.068 207.035 64.496 206.995 65H212.551V64.1H208.183C208.231 63.836 208.331 63.604 208.483 63.404C208.643 63.196 208.831 63.004 209.047 62.828C209.271 62.652 209.515 62.488 209.779 62.336C210.043 62.176 210.307 62.016 210.571 61.856C210.835 61.688 211.091 61.512 211.339 61.328C211.587 61.144 211.807 60.94 211.999 60.716C212.191 60.484 212.343 60.224 212.455 59.936C212.575 59.648 212.635 59.316 212.635 58.94C212.635 58.54 212.563 58.188 212.419 57.884C212.283 57.58 212.095 57.328 211.855 57.128C211.615 56.92 211.331 56.764 211.003 56.66C210.683 56.548 210.339 56.492 209.971 56.492C209.523 56.492 209.123 56.568 208.771 56.72C208.419 56.872 208.123 57.084 207.883 57.356C207.651 57.62 207.479 57.936 207.367 58.304C207.255 58.672 207.211 59.072 207.235 59.504ZM214.959 60.812C214.959 60.604 214.959 60.376 214.959 60.128C214.967 59.872 214.987 59.62 215.019 59.372C215.059 59.116 215.111 58.868 215.175 58.628C215.247 58.388 215.347 58.18 215.475 58.004C215.611 57.82 215.779 57.672 215.979 57.56C216.179 57.448 216.423 57.392 216.711 57.392C216.999 57.392 217.243 57.448 217.443 57.56C217.643 57.672 217.807 57.82 217.935 58.004C218.071 58.18 218.171 58.388 218.235 58.628C218.307 58.868 218.359 59.116 218.391 59.372C218.431 59.62 218.451 59.872 218.451 60.128C218.459 60.376 218.463 60.604 218.463 60.812C218.463 61.132 218.451 61.492 218.427 61.892C218.411 62.284 218.347 62.656 218.235 63.008C218.131 63.352 217.959 63.644 217.719 63.884C217.479 64.124 217.143 64.244 216.711 64.244C216.279 64.244 215.943 64.124 215.703 63.884C215.463 63.644 215.287 63.352 215.175 63.008C215.071 62.656 215.007 62.284 214.983 61.892C214.967 61.492 214.959 61.132 214.959 60.812ZM213.879 60.824C213.879 61.136 213.887 61.46 213.903 61.796C213.919 62.132 213.959 62.46 214.023 62.78C214.087 63.1 214.179 63.404 214.299 63.692C214.419 63.972 214.583 64.22 214.791 64.436C214.999 64.652 215.259 64.824 215.571 64.952C215.891 65.072 216.271 65.132 216.711 65.132C217.159 65.132 217.539 65.072 217.851 64.952C218.163 64.824 218.423 64.652 218.631 64.436C218.839 64.22 219.003 63.972 219.123 63.692C219.243 63.404 219.335 63.1 219.399 62.78C219.463 62.46 219.503 62.132 219.519 61.796C219.535 61.46 219.543 61.136 219.543 60.824C219.543 60.512 219.535 60.188 219.519 59.852C219.503 59.516 219.463 59.188 219.399 58.868C219.335 58.548 219.243 58.244 219.123 57.956C219.003 57.668 218.839 57.416 218.631 57.2C218.423 56.984 218.159 56.812 217.839 56.684C217.527 56.556 217.151 56.492 216.711 56.492C216.271 56.492 215.891 56.556 215.571 56.684C215.259 56.812 214.999 56.984 214.791 57.2C214.583 57.416 214.419 57.668 214.299 57.956C214.179 58.244 214.087 58.548 214.023 58.868C213.959 59.188 213.919 59.516 213.903 59.852C213.887 60.188 213.879 60.512 213.879 60.824ZM224.315 65V56.492H223.535C223.479 56.812 223.375 57.076 223.223 57.284C223.071 57.492 222.883 57.656 222.659 57.776C222.443 57.896 222.199 57.98 221.927 58.028C221.655 58.068 221.375 58.088 221.087 58.088V58.904H223.295V65H224.315ZM228.319 62.948H227.299C227.363 63.684 227.631 64.232 228.103 64.592C228.575 64.952 229.167 65.132 229.879 65.132C230.911 65.132 231.659 64.74 232.123 63.956C232.595 63.164 232.831 62.032 232.831 60.56C232.831 59.752 232.751 59.088 232.591 58.568C232.439 58.04 232.231 57.624 231.967 57.32C231.703 57.016 231.395 56.804 231.043 56.684C230.691 56.556 230.315 56.492 229.915 56.492C229.507 56.492 229.131 56.56 228.787 56.696C228.443 56.832 228.147 57.024 227.899 57.272C227.651 57.512 227.459 57.804 227.323 58.148C227.187 58.484 227.119 58.856 227.119 59.264C227.119 59.68 227.175 60.064 227.287 60.416C227.407 60.768 227.579 61.068 227.803 61.316C228.035 61.564 228.319 61.76 228.655 61.904C228.991 62.04 229.375 62.108 229.807 62.108C230.223 62.108 230.607 62.004 230.959 61.796C231.311 61.58 231.583 61.292 231.775 60.932L231.799 60.956C231.767 62.068 231.595 62.896 231.283 63.44C230.971 63.976 230.503 64.244 229.879 64.244C229.471 64.244 229.119 64.132 228.823 63.908C228.527 63.684 228.359 63.364 228.319 62.948ZM231.619 59.336C231.619 59.584 231.579 59.824 231.499 60.056C231.419 60.28 231.303 60.48 231.151 60.656C230.999 60.824 230.815 60.96 230.599 61.064C230.383 61.16 230.143 61.208 229.879 61.208C229.631 61.208 229.403 61.16 229.195 61.064C228.995 60.96 228.819 60.824 228.667 60.656C228.523 60.488 228.407 60.296 228.319 60.08C228.239 59.864 228.199 59.64 228.199 59.408C228.199 59.144 228.227 58.892 228.283 58.652C228.347 58.412 228.443 58.2 228.571 58.016C228.707 57.824 228.879 57.672 229.087 57.56C229.303 57.448 229.563 57.392 229.867 57.392C230.155 57.392 230.407 57.444 230.623 57.548C230.839 57.652 231.019 57.796 231.163 57.98C231.315 58.156 231.427 58.36 231.499 58.592C231.579 58.824 231.619 59.072 231.619 59.336ZM234.375 63.668V65H235.083C235.091 65.096 235.083 65.2 235.059 65.312C235.043 65.424 235.007 65.532 234.951 65.636C234.895 65.748 234.819 65.848 234.723 65.936C234.635 66.032 234.523 66.104 234.387 66.152V66.752C234.851 66.616 235.187 66.384 235.395 66.056C235.603 65.728 235.707 65.336 235.707 64.88V63.668H234.375ZM246.323 64.976C246.147 65.08 245.903 65.132 245.591 65.132C245.327 65.132 245.115 65.06 244.955 64.916C244.803 64.764 244.727 64.52 244.727 64.184C244.447 64.52 244.119 64.764 243.743 64.916C243.375 65.06 242.975 65.132 242.543 65.132C242.263 65.132 241.995 65.1 241.739 65.036C241.491 64.972 241.275 64.872 241.091 64.736C240.907 64.6 240.759 64.424 240.647 64.208C240.543 63.984 240.491 63.716 240.491 63.404C240.491 63.052 240.551 62.764 240.671 62.54C240.791 62.316 240.947 62.136 241.139 62C241.339 61.856 241.563 61.748 241.811 61.676C242.067 61.604 242.327 61.544 242.591 61.496C242.871 61.44 243.135 61.4 243.383 61.376C243.639 61.344 243.863 61.304 244.055 61.256C244.247 61.2 244.399 61.124 244.511 61.028C244.623 60.924 244.679 60.776 244.679 60.584C244.679 60.36 244.635 60.18 244.547 60.044C244.467 59.908 244.359 59.804 244.223 59.732C244.095 59.66 243.947 59.612 243.779 59.588C243.619 59.564 243.459 59.552 243.299 59.552C242.867 59.552 242.507 59.636 242.219 59.804C241.931 59.964 241.775 60.272 241.751 60.728H240.731C240.747 60.344 240.827 60.02 240.971 59.756C241.115 59.492 241.307 59.28 241.547 59.12C241.787 58.952 242.059 58.832 242.363 58.76C242.675 58.688 243.007 58.652 243.359 58.652C243.639 58.652 243.915 58.672 244.187 58.712C244.467 58.752 244.719 58.836 244.943 58.964C245.167 59.084 245.347 59.256 245.483 59.48C245.619 59.704 245.687 59.996 245.687 60.356V63.548C245.687 63.788 245.699 63.964 245.723 64.076C245.755 64.188 245.851 64.244 246.011 64.244C246.099 64.244 246.203 64.224 246.323 64.184V64.976ZM244.667 61.796C244.539 61.892 244.371 61.964 244.163 62.012C243.955 62.052 243.735 62.088 243.503 62.12C243.279 62.144 243.051 62.176 242.819 62.216C242.587 62.248 242.379 62.304 242.195 62.384C242.011 62.464 241.859 62.58 241.739 62.732C241.627 62.876 241.571 63.076 241.571 63.332C241.571 63.5 241.603 63.644 241.667 63.764C241.739 63.876 241.827 63.968 241.931 64.04C242.043 64.112 242.171 64.164 242.315 64.196C242.459 64.228 242.611 64.244 242.771 64.244C243.107 64.244 243.395 64.2 243.635 64.112C243.875 64.016 244.071 63.9 244.223 63.764C244.375 63.62 244.487 63.468 244.559 63.308C244.631 63.14 244.667 62.984 244.667 62.84V61.796ZM248.688 58.796V56.936H247.668V58.796H246.612V59.696H247.668V63.644C247.668 63.932 247.696 64.164 247.752 64.34C247.808 64.516 247.892 64.652 248.004 64.748C248.124 64.844 248.276 64.912 248.46 64.952C248.652 64.984 248.88 65 249.144 65H249.924V64.1H249.456C249.296 64.1 249.164 64.096 249.06 64.088C248.964 64.072 248.888 64.044 248.832 64.004C248.776 63.964 248.736 63.908 248.712 63.836C248.696 63.764 248.688 63.668 248.688 63.548V59.696H249.924V58.796H248.688ZM257.901 65V56.492H257.121C257.065 56.812 256.961 57.076 256.809 57.284C256.657 57.492 256.469 57.656 256.245 57.776C256.029 57.896 255.785 57.98 255.513 58.028C255.241 58.068 254.961 58.088 254.673 58.088V58.904H256.881V65H257.901ZM260.825 59.504H261.845C261.837 59.248 261.861 58.996 261.917 58.748C261.981 58.492 262.081 58.264 262.217 58.064C262.353 57.864 262.525 57.704 262.733 57.584C262.949 57.456 263.205 57.392 263.501 57.392C263.725 57.392 263.937 57.428 264.137 57.5C264.337 57.572 264.509 57.676 264.653 57.812C264.805 57.948 264.925 58.112 265.013 58.304C265.101 58.488 265.145 58.696 265.145 58.928C265.145 59.224 265.097 59.484 265.001 59.708C264.913 59.932 264.777 60.14 264.593 60.332C264.417 60.524 264.193 60.716 263.921 60.908C263.649 61.092 263.333 61.296 262.973 61.52C262.677 61.696 262.393 61.884 262.121 62.084C261.849 62.284 261.605 62.516 261.389 62.78C261.173 63.044 260.993 63.356 260.849 63.716C260.713 64.068 260.625 64.496 260.585 65H266.141V64.1H261.773C261.821 63.836 261.921 63.604 262.073 63.404C262.233 63.196 262.421 63.004 262.637 62.828C262.861 62.652 263.105 62.488 263.369 62.336C263.633 62.176 263.897 62.016 264.161 61.856C264.425 61.688 264.681 61.512 264.929 61.328C265.177 61.144 265.397 60.94 265.589 60.716C265.781 60.484 265.933 60.224 266.045 59.936C266.165 59.648 266.225 59.316 266.225 58.94C266.225 58.54 266.153 58.188 266.009 57.884C265.873 57.58 265.685 57.328 265.445 57.128C265.205 56.92 264.921 56.764 264.593 56.66C264.273 56.548 263.929 56.492 263.561 56.492C263.113 56.492 262.713 56.568 262.361 56.72C262.009 56.872 261.713 57.084 261.473 57.356C261.241 57.62 261.069 57.936 260.957 58.304C260.845 58.672 260.801 59.072 260.825 59.504ZM269.293 60.128V58.796H267.961V60.128H269.293ZM267.961 63.668V65H269.293V63.668H267.961ZM274.373 62.108H271.517L274.349 57.944H274.373V62.108ZM275.333 62.108V56.492H274.517L270.641 62.024V63.008H274.373V65H275.333V63.008H276.485V62.108H275.333ZM282.613 57.536V56.636H278.413L277.621 61.052L278.497 61.1C278.697 60.86 278.925 60.668 279.181 60.524C279.445 60.372 279.745 60.296 280.081 60.296C280.369 60.296 280.629 60.344 280.861 60.44C281.101 60.536 281.305 60.672 281.473 60.848C281.641 61.016 281.769 61.22 281.857 61.46C281.953 61.692 282.001 61.948 282.001 62.228C282.001 62.564 281.953 62.86 281.857 63.116C281.761 63.364 281.629 63.572 281.461 63.74C281.301 63.908 281.109 64.036 280.885 64.124C280.669 64.204 280.441 64.244 280.201 64.244C279.945 64.244 279.709 64.208 279.493 64.136C279.285 64.056 279.101 63.948 278.941 63.812C278.789 63.668 278.665 63.504 278.569 63.32C278.481 63.128 278.429 62.924 278.413 62.708H277.393C277.401 63.092 277.477 63.436 277.621 63.74C277.765 64.044 277.961 64.3 278.209 64.508C278.457 64.708 278.741 64.864 279.061 64.976C279.389 65.08 279.737 65.132 280.105 65.132C280.601 65.132 281.033 65.056 281.401 64.904C281.777 64.744 282.089 64.532 282.337 64.268C282.585 64.004 282.769 63.704 282.889 63.368C283.017 63.024 283.081 62.672 283.081 62.312C283.081 61.824 283.009 61.4 282.865 61.04C282.721 60.672 282.525 60.368 282.277 60.128C282.029 59.88 281.737 59.696 281.401 59.576C281.065 59.456 280.709 59.396 280.333 59.396C280.045 59.396 279.753 59.448 279.457 59.552C279.169 59.648 278.933 59.8 278.749 60.008L278.725 59.984L279.181 57.536H282.613ZM284.445 58.796V67.364H285.465V64.172H285.489C285.601 64.356 285.737 64.512 285.897 64.64C286.065 64.76 286.241 64.856 286.425 64.928C286.609 65 286.793 65.052 286.977 65.084C287.169 65.116 287.341 65.132 287.493 65.132C287.965 65.132 288.377 65.048 288.729 64.88C289.089 64.712 289.385 64.484 289.617 64.196C289.857 63.9 290.033 63.556 290.145 63.164C290.265 62.772 290.325 62.356 290.325 61.916C290.325 61.476 290.265 61.06 290.145 60.668C290.025 60.276 289.845 59.932 289.605 59.636C289.373 59.332 289.077 59.092 288.717 58.916C288.365 58.74 287.949 58.652 287.469 58.652C287.037 58.652 286.641 58.732 286.281 58.892C285.921 59.044 285.657 59.292 285.489 59.636H285.465V58.796H284.445ZM289.245 61.844C289.245 62.148 289.213 62.444 289.149 62.732C289.085 63.02 288.981 63.276 288.837 63.5C288.693 63.724 288.501 63.904 288.261 64.04C288.029 64.176 287.737 64.244 287.385 64.244C287.033 64.244 286.733 64.18 286.485 64.052C286.237 63.916 286.033 63.74 285.873 63.524C285.721 63.308 285.609 63.06 285.537 62.78C285.465 62.492 285.429 62.196 285.429 61.892C285.429 61.604 285.461 61.32 285.525 61.04C285.597 60.76 285.709 60.512 285.861 60.296C286.013 60.072 286.209 59.892 286.449 59.756C286.689 59.62 286.981 59.552 287.325 59.552C287.653 59.552 287.937 59.616 288.177 59.744C288.425 59.872 288.625 60.044 288.777 60.26C288.937 60.476 289.053 60.724 289.125 61.004C289.205 61.276 289.245 61.556 289.245 61.844ZM291.522 58.796V65H292.542V61.136C292.542 61.016 292.57 60.868 292.626 60.692C292.69 60.508 292.786 60.332 292.914 60.164C293.05 59.996 293.222 59.852 293.43 59.732C293.646 59.612 293.902 59.552 294.198 59.552C294.43 59.552 294.618 59.588 294.762 59.66C294.914 59.724 295.034 59.82 295.122 59.948C295.21 60.068 295.27 60.212 295.302 60.38C295.342 60.548 295.362 60.732 295.362 60.932V65H296.382V61.136C296.382 60.656 296.526 60.272 296.814 59.984C297.102 59.696 297.498 59.552 298.002 59.552C298.25 59.552 298.45 59.588 298.602 59.66C298.762 59.732 298.886 59.832 298.974 59.96C299.062 60.08 299.122 60.224 299.154 60.392C299.186 60.56 299.202 60.74 299.202 60.932V65H300.222V60.452C300.222 60.132 300.17 59.86 300.066 59.636C299.97 59.404 299.83 59.216 299.646 59.072C299.47 58.928 299.254 58.824 298.998 58.76C298.75 58.688 298.47 58.652 298.158 58.652C297.75 58.652 297.374 58.744 297.03 58.928C296.694 59.112 296.422 59.372 296.214 59.708C296.086 59.324 295.866 59.052 295.554 58.892C295.242 58.732 294.894 58.652 294.51 58.652C293.638 58.652 292.97 59.004 292.506 59.708H292.482V58.796H291.522Z" fill="#47505F"/>
<defs>
<filter id="filter0_d" x="0" y="0" width="104" height="104" filterUnits="userSpaceOnUse" color-interpolation-filters="sRGB">
<feFlood flood-opacity="0" result="BackgroundImageFix"/>
<feColorMatrix in="SourceAlpha" type="matrix" values="0 0 0 0 0 0 0 0 0 0 0 0 0 0 0 0 0 0 127 0"/>
<feOffset dy="4"/>
<feGaussianBlur stdDeviation="12"/>
<feColorMatrix type="matrix" values="0 0 0 0 0 0 0 0 0 0 0 0 0 0 0 0 0 0 0.15 0"/>
<feBlend mode="normal" in2="BackgroundImageFix" result="effect1_dropShadow"/>
<feBlend mode="normal" in="SourceGraphic" in2="effect1_dropShadow" result="shape"/>
</filter>
<filter id="filter1_d" x="72" y="4" width="334" height="100" filterUnits="userSpaceOnUse" color-interpolation-filters="sRGB">
<feFlood flood-opacity="0" result="BackgroundImageFix"/>
<feColorMatrix in="SourceAlpha" type="matrix" values="0 0 0 0 0 0 0 0 0 0 0 0 0 0 0 0 0 0 127 0"/>
<feOffset dy="4"/>
<feGaussianBlur stdDeviation="10"/>
<feColorMatrix type="matrix" values="0 0 0 0 0.164706 0 0 0 0 0.192157 0 0 0 0 0.235294 0 0 0 0.15 0"/>
<feBlend mode="normal" in2="BackgroundImageFix" result="effect1_dropShadow"/>
<feBlend mode="normal" in="SourceGraphic" in2="effect1_dropShadow" result="shape"/>
</filter>
<clipPath id="clip0">
<rect width="38.8137" height="17.5" fill="white" transform="translate(33.625 41)"/>
</clipPath>
</defs>
</svg>
