<svg width="92" height="24" viewBox="0 0 92 24" fill="none" xmlns="http://www.w3.org/2000/svg">
<path fill-rule="evenodd" clip-rule="evenodd" d="M29.1915 5.79053H34.2621C35.9593 5.79053 37.2375 6.25628 37.9582 7.13691C38.6143 7.93887 38.8316 9.08399 38.6047 10.5414C38.1013 13.8727 36.1735 15.5537 32.8334 15.5537H31.2282C30.882 15.5537 30.5861 15.8159 30.5328 16.1729L29.9797 19.8203C29.9255 20.1773 29.6304 20.4395 29.2835 20.4395H26.8627C26.6025 20.4395 26.4038 20.1989 26.4445 19.9321L28.4953 6.40897C28.5494 6.05271 28.8445 5.79053 29.1915 5.79053ZM31.8355 12.6223C33.1797 12.6223 34.5698 12.6223 34.8471 10.73C34.9487 10.0653 34.8672 9.58411 34.601 9.26024C34.1546 8.71737 33.2909 8.71737 32.3752 8.71737H32.0245C31.8169 8.71737 31.639 8.87468 31.6071 9.08828L31.0703 12.6223H31.8355Z" fill="#2A313C"/>
<path fill-rule="evenodd" clip-rule="evenodd" d="M46.9908 10.6684H49.419C49.6785 10.6684 49.8765 10.9098 49.835 11.1758L48.5226 19.8193C48.4678 20.1763 48.1742 20.4385 47.8264 20.4385H45.6392C45.3805 20.4385 45.1818 20.1979 45.2225 19.9296L45.3308 19.2279C45.3308 19.2279 44.1319 20.6737 41.9699 20.6737C40.7102 20.6737 39.6515 20.2959 38.9115 19.389C38.1048 18.4028 37.7749 16.9885 38.007 15.5095C38.4533 12.5446 40.7451 10.4309 43.4283 10.4309C44.5983 10.4309 45.7704 10.6962 46.2961 11.4897L46.4659 11.7457L46.5734 11.0393C46.6053 10.8257 46.784 10.6684 46.9908 10.6684ZM43.2947 17.9949C44.699 17.9949 45.8 17.0264 46.0343 15.5836C46.1403 14.885 45.9935 14.2511 45.6236 13.797C45.2543 13.3474 44.6938 13.1091 44.0043 13.1091C42.6215 13.1091 41.502 14.1093 41.2833 15.5397C41.1691 16.2414 41.3055 16.8714 41.6643 17.314C42.0262 17.7598 42.5896 17.9949 43.2947 17.9949Z" fill="#2A313C"/>
<path d="M62.3514 10.6682H59.9113C59.6785 10.6682 59.4598 10.7885 59.3278 10.9898L55.9625 16.1455L54.536 11.191C54.4463 10.881 54.1712 10.6682 53.8598 10.6682H51.462C51.1706 10.6682 50.9682 10.9643 51.0609 11.2496L53.7486 19.4528L51.2218 23.1627C51.0231 23.455 51.2233 23.8567 51.5666 23.8567H54.0036C54.235 23.8567 54.4515 23.7395 54.5827 23.5421L62.6984 11.3584C62.8926 11.0669 62.6932 10.6682 62.3514 10.6682Z" fill="#2A313C"/>
<path opacity="0.64" fill-rule="evenodd" clip-rule="evenodd" d="M65.3583 5.79028H70.4297C72.1268 5.79028 73.4043 6.25604 74.1242 7.13666C74.7804 7.93863 74.9991 9.08374 74.7715 10.5412C74.2673 13.8724 72.3403 15.5535 68.9995 15.5535H67.395C67.0488 15.5535 66.7529 15.8156 66.6996 16.1727L66.1175 20.0059C66.0797 20.2558 65.8729 20.4393 65.6312 20.4393H63.0288C62.77 20.4393 62.5713 20.1987 62.6121 19.9319L64.6629 6.40872C64.717 6.05246 65.0121 5.79028 65.3583 5.79028ZM68.003 12.6221C69.3479 12.6221 70.7381 12.6221 71.0147 10.7298C71.1163 10.065 71.0354 9.58387 70.7693 9.26C70.3229 8.71713 69.4584 8.71713 68.5435 8.71713H68.1928C67.9845 8.71713 67.808 8.87444 67.7761 9.08804L67.2386 12.6221H68.003Z" fill="#2A313C"/>
<path opacity="0.64" fill-rule="evenodd" clip-rule="evenodd" d="M83.1593 10.6684H85.586C85.8462 10.6684 86.0449 10.9098 86.0049 11.1758L84.6918 19.8193C84.6377 20.1763 84.3426 20.4385 83.9964 20.4385H81.8099C81.5497 20.4385 81.351 20.1979 81.3918 19.9296L81.5 19.2279C81.5 19.2279 80.3011 20.6737 78.1391 20.6737C76.8794 20.6737 75.8222 20.2959 75.0807 19.389C74.2741 18.4028 73.9456 16.9885 74.1769 15.5095C74.6233 12.5446 76.9143 10.4309 79.5975 10.4309C80.7675 10.4309 81.9389 10.6962 82.4646 11.4897L82.6351 11.7457L82.7426 11.0393C82.7738 10.8257 82.951 10.6684 83.1593 10.6684ZM79.4619 17.9949C80.8661 17.9949 81.9686 17.0264 82.2014 15.5836C82.3089 14.885 82.1621 14.2511 81.7907 13.797C81.4215 13.3474 80.8609 13.1091 80.1714 13.1091C78.7886 13.1091 77.6706 14.1093 77.4504 15.5397C77.3377 16.2414 77.4726 16.8714 77.8315 17.314C78.1933 17.7598 78.7582 17.9949 79.4619 17.9949Z" fill="#2A313C"/>
<path opacity="0.64" d="M88.4487 6.16099L86.3675 19.9317C86.3267 20.1985 86.5254 20.4391 86.7842 20.4391H88.8765C89.2242 20.4391 89.5193 20.1769 89.5727 19.8199L91.625 6.29748C91.6657 6.03067 91.467 5.78931 91.2083 5.78931H88.8654C88.6585 5.79008 88.4806 5.94739 88.4487 6.16099Z" fill="#2A313C"/>
<path opacity="0.64" d="M17.0884 6.4978C17.0676 6.63583 17.0439 6.77695 17.0172 6.92192C16.1 11.8193 12.9623 13.5112 8.95489 13.5112H6.91449C6.4244 13.5112 6.01143 13.8813 5.93506 14.3841L4.89039 21.2748L4.59456 23.2281C4.54488 23.5581 4.78956 23.8558 5.10985 23.8558H8.72876C9.1573 23.8558 9.52134 23.5319 9.58881 23.0923L9.6244 22.9011L10.3058 18.4039L10.3495 18.1572C10.4162 17.7161 10.781 17.3922 11.2096 17.3922H11.7508C15.257 17.3922 18.0018 15.9117 18.804 11.6273C19.1391 9.83753 18.9656 8.3431 18.0789 7.29206C17.8105 6.97513 17.4776 6.71217 17.0884 6.4978Z" fill="#2A313C"/>
<path d="M16.1292 6.10019C15.9891 6.05778 15.8445 6.01922 15.6962 5.98452C15.5472 5.95059 15.3944 5.92052 15.2372 5.8943C14.6871 5.80177 14.0843 5.75781 13.4385 5.75781H7.98757C7.85338 5.75781 7.72585 5.78943 7.61167 5.84649C7.36033 5.97218 7.17349 6.21971 7.12826 6.52277L5.96867 14.1615L5.9353 14.3844C6.01167 13.8816 6.42464 13.5114 6.91473 13.5114H8.95514C12.9626 13.5114 16.1003 11.8188 17.0174 6.92221C17.0448 6.77724 17.0678 6.63612 17.0886 6.49809C16.8565 6.37008 16.6052 6.26058 16.3346 6.16728C16.2678 6.14414 16.1989 6.12178 16.1292 6.10019Z" fill="#2A313C"/>
<path opacity="0.81" d="M7.12807 6.52305C7.1733 6.22 7.36014 5.97247 7.61148 5.84755C7.7264 5.79048 7.85319 5.75887 7.98739 5.75887H13.4384C14.0841 5.75887 14.6869 5.80282 15.2371 5.89535C15.3942 5.92157 15.547 5.95165 15.696 5.98558C15.8443 6.02028 15.9889 6.05883 16.129 6.10124C16.1987 6.12284 16.2676 6.1452 16.3351 6.16756C16.6057 6.26087 16.8571 6.37114 17.0891 6.49837C17.362 4.68855 17.0869 3.4563 16.1461 2.34048C15.1088 1.11209 13.2367 0.586182 10.8411 0.586182H3.88655C3.39721 0.586182 2.97979 0.95632 2.90416 1.45986L0.00740599 20.5567C-0.0496839 20.9345 0.230576 21.2754 0.596841 21.2754H4.89045L5.96848 14.1618L7.12807 6.52305Z" fill="#2A313C"/>
</svg>
