<svg width="110" height="18" viewBox="0 0 110 18" fill="none" xmlns="http://www.w3.org/2000/svg">
<path fill-rule="evenodd" clip-rule="evenodd" d="M78.0889 0.90332C76.8474 0.90332 75.6304 1.37095 74.6811 2.25426V1.21508H72.1009V17.868H74.6567V12.3084C75.606 13.1657 76.8231 13.6333 78.0645 13.6593C81.1315 13.6593 83.6387 10.8015 83.6387 7.2943C83.6387 3.78706 81.1802 0.90332 78.0889 0.90332ZM94.0572 2.2023V1.21508H96.613V13.4255H94.0572V12.3343C93.1079 13.1657 91.9151 13.6333 90.6737 13.6333C87.5824 13.6333 85.0995 10.7756 85.0995 7.26832C85.0995 3.76108 87.6067 0.90332 90.6737 0.90332C91.9151 0.90332 93.1079 1.37095 94.0572 2.2023ZM87.6066 7.26823C87.6066 9.4765 89.1157 11.2431 90.9657 11.2431C92.8156 11.2431 94.3248 9.50248 94.3248 7.29421C94.3248 5.08595 92.8156 3.31934 90.9657 3.31934C89.1157 3.31934 87.6066 5.05997 87.6066 7.26823ZM74.4375 7.26834C74.4375 9.4766 75.9466 11.2432 77.7966 11.2432C79.6465 11.2432 81.1557 9.4766 81.1557 7.26834C81.1557 5.06007 79.6465 3.29346 77.7966 3.29346C75.9466 3.29346 74.4375 5.06007 74.4375 7.26834ZM107.493 1.21533L104.207 9.5288L100.702 1.21533H98.1705L102.99 12.6464L100.921 17.8683H103.428L110 1.21533H107.493ZM55.9627 10.957L55.841 2.90332H58.2264V13.0613H54.7943L52.4088 4.72189H52.3601L52.4819 13.0613H50.1207V2.90332H53.6989L55.914 10.957H55.9627ZM10.5656 2.90354L8.7887 13.1655H11.3932L12.7077 3.83881H12.7564L14.0464 13.1655H16.6266L14.8497 2.90354H10.5656ZM23.9047 10.7494L25.0975 2.90354H28.9921L29.2112 13.1655H26.8014L26.7527 3.94272H26.704L25.0975 13.1655H22.6633L21.0324 3.94272H20.9838L20.9351 13.1655H18.5253L18.7443 2.90354H22.6877L23.856 10.7494H23.9047ZM4.74799 10.256C4.82102 10.5158 4.82101 10.7756 4.77233 11.0354C4.69931 11.3731 4.48023 11.7108 3.82302 11.7108C3.21448 11.7108 2.84936 11.3471 2.84936 10.7756V9.76236H0.269165V10.5417C0.269165 12.828 1.94872 13.5294 3.77433 13.5294C5.52692 13.5294 6.93872 12.9059 7.18214 11.1912C7.2795 10.6197 7.2795 10.0741 7.18214 9.50257C6.94513 8.26754 5.64612 7.53534 4.52907 6.9057C3.69579 6.43602 2.96376 6.0234 2.84936 5.50171C2.82502 5.31985 2.82502 5.13799 2.84936 4.95614C2.92238 4.6184 3.11711 4.25469 3.72565 4.25469C4.18814 4.20273 4.5776 4.56644 4.62628 5.03408V5.18995V5.81346H7.03609V5.08603C7.03609 2.85179 5.1618 2.48807 3.79867 2.48807C2.09477 2.48807 0.68297 3.08561 0.439555 4.77428C0.342189 5.24191 0.342189 5.70955 0.439555 6.17718C0.664798 7.42426 1.89961 8.14996 2.99978 8.79654C3.8019 9.26795 4.53245 9.69729 4.74799 10.256ZM36.0267 11.0091C36.0754 10.7493 36.0754 10.4895 36.0024 10.2557C35.7933 9.68675 35.0501 9.25192 34.2373 8.77636C33.1573 8.14449 31.9544 7.44072 31.7183 6.25486C31.6209 5.78723 31.6209 5.31959 31.6939 4.87794C31.9617 3.21525 33.3248 2.61772 35.0287 2.61772C36.3918 2.61772 38.2418 2.98143 38.2418 5.1897V5.91713H35.8807V5.29361V5.16372C35.8563 4.69608 35.4425 4.33237 35.0044 4.38433C34.3958 4.38433 34.2011 4.72206 34.1281 5.0598C34.1037 5.24166 34.1037 5.39753 34.1281 5.57939C34.2325 6.0923 34.9603 6.50471 35.7897 6.97478C36.8929 7.59995 38.176 8.32711 38.4122 9.52829C38.5095 10.0739 38.5095 10.6454 38.4122 11.191C38.1931 12.8797 36.7813 13.5032 35.053 13.5032C33.2761 13.5032 31.5966 12.8277 31.5966 10.5675V9.78809H34.1524V10.7753C34.1524 11.3209 34.5175 11.6846 35.1017 11.6846C35.7346 11.6846 35.9537 11.3469 36.0267 11.0091ZM44.085 11.6067C44.5231 11.6587 44.9126 11.3209 45.01 10.8793C45.0343 10.7494 45.0343 10.6195 45.0343 10.4896V2.90354H47.4685V10.2558C47.4685 10.3592 47.4606 10.5299 47.4538 10.677L47.4538 10.6775L47.4538 10.6778C47.4486 10.7889 47.4441 10.8865 47.4441 10.9312C47.2737 12.8537 45.8619 13.4772 44.085 13.4772C42.3081 13.4772 40.8963 12.8537 40.7259 10.9312C40.7259 10.8865 40.7214 10.7889 40.7162 10.6778L40.7162 10.6775L40.7162 10.677C40.7094 10.5299 40.7015 10.3592 40.7015 10.2558V2.90354H43.1357V10.4896C43.1357 10.6195 43.1357 10.7494 43.16 10.8793C43.2574 11.3469 43.6469 11.6587 44.085 11.6067ZM65.1148 10.7759C65.0904 11.0357 64.847 11.5033 64.1411 11.5033C63.4352 11.5033 63.1918 11.0357 63.1918 10.7759C63.1675 10.646 63.1675 10.5161 63.1675 10.3862V5.68386C63.1675 5.502 63.1918 5.34612 63.2161 5.19025C63.3135 4.72261 63.703 4.38488 64.1655 4.43684C64.92 4.43684 65.0904 4.95643 65.1391 5.19025C65.1635 5.32014 65.1635 5.45004 65.1635 5.57994V6.15149H67.5976V5.81376C67.5976 5.57994 67.5976 5.3721 67.5733 5.13829C67.3785 3.18982 65.8937 2.59229 64.1898 2.59229C62.4859 2.59229 61.0254 3.2158 60.8063 5.13829C60.8041 5.15972 60.8019 5.18094 60.7997 5.20198C60.7777 5.41043 60.7577 5.60137 60.7577 5.81376V10.1523C60.7577 10.3342 60.7577 10.4901 60.782 10.8278C60.9524 12.6983 62.4616 13.3738 64.1655 13.3738C65.8694 13.3738 67.4029 12.6983 67.5489 10.8278C67.5733 10.4902 67.5733 10.3343 67.5733 10.1525V10.1523V7.39851H64.1655V8.90533H65.1391V10.3862C65.1391 10.5161 65.1391 10.646 65.1148 10.7759Z" fill="#2A313C"/>
</svg>
